<?xml version="1.0" encoding="utf-8"?>
<!DOCTYPE svg PUBLIC "-//W3C//DTD SVG 1.0//EN" "http://www.w3.org/TR/2001/REC-SVG-20010904/DTD/svg10.dtd">
<svg version="1.0" xmlns="http://www.w3.org/2000/svg" width="1024px" height="1024px" viewBox="0 0 1024 1024" preserveAspectRatio="xMidYMid meet">
 <g fill="#faf9f9">
  <path d="M785 708.5 c0 -3.3 0.2 -3.5 3.5 -3.5 3.3 0 3.5 0.2 3.5 3.5 0 3.3 -0.2 3.5 -3.5 3.5 -3.3 0 -3.5 -0.2 -3.5 -3.5z"/>
  <path d="M785 698.5 c0 -3.3 0.2 -3.5 3.5 -3.5 3.3 0 3.5 0.2 3.5 3.5 0 3.3 -0.2 3.5 -3.5 3.5 -3.3 0 -3.5 -0.2 -3.5 -3.5z"/>
  <path d="M788 662.5 c0 -3.3 0.2 -3.5 3.5 -3.5 3.3 0 3.5 0.2 3.5 3.5 0 3.3 -0.2 3.5 -3.5 3.5 -3.3 0 -3.5 -0.2 -3.5 -3.5z"/>
  <path d="M784.6 650.8 c-0.3 -1.3 -0.6 -3.5 -0.6 -5 0 -1.8 -0.5 -2.8 -1.5 -2.8 -0.8 0 -1.5 -0.7 -1.5 -1.6 0 -0.8 -0.7 -2.2 -1.5 -3 -0.8 -0.9 -1.5 -2.6 -1.5 -4 0 -1.5 -0.6 -2.4 -1.5 -2.4 -0.8 0 -1.5 -0.7 -1.5 -1.5 0 -0.8 -0.4 -1.5 -1 -1.5 -0.5 0 -1 -1.6 -1 -3.5 0 -3.3 0.2 -3.5 3.5 -3.5 2.4 0 3.5 0.5 3.5 1.5 0 0.8 0.5 1.5 1 1.5 0.6 0 1 1.1 1 2.5 0 1.6 0.6 2.5 1.5 2.5 0.9 0 1.8 1.2 2.2 3 0.3 1.7 0.9 3 1.4 3 0.5 0 0.9 1.6 0.9 3.5 0 2.3 0.5 3.5 1.4 3.5 1.5 0 2.6 3 2.6 7.3 0 2.4 -0.4 2.7 -3.4 2.7 -2.6 0 -3.5 -0.5 -4 -2.2z"/>
  <path d="M628 641.5 c0 -3.3 0.2 -3.5 3.5 -3.5 3.3 0 3.5 0.2 3.5 3.5 0 3.3 -0.2 3.5 -3.5 3.5 -3.3 0 -3.5 -0.2 -3.5 -3.5z"/>
  <path d="M755 609 c0 -1.6 -0.7 -2 -3 -2 -2.8 0 -3 -0.3 -3 -3.5 0 -3.3 0.2 -3.5 3.5 -3.5 2.8 0 3.5 0.4 3.5 2 0 1.6 0.7 2 3 2 2.8 0 3 0.3 3 3.5 0 3.3 -0.2 3.5 -3.5 3.5 -2.8 0 -3.5 -0.4 -3.5 -2z"/>
  <path d="M678 601.5 c0 -3.3 0.2 -3.5 3.5 -3.5 3.3 0 3.5 0.2 3.5 3.5 0 3.3 -0.2 3.5 -3.5 3.5 -3.3 0 -3.5 -0.2 -3.5 -3.5z"/>
  <path d="M739 598.5 c0 -3.3 0.2 -3.5 3.5 -3.5 3.3 0 3.5 0.2 3.5 3.5 0 3.3 -0.2 3.5 -3.5 3.5 -3.3 0 -3.5 -0.2 -3.5 -3.5z"/>
  <path d="M717 593.5 c0 -3.3 0.2 -3.5 3.5 -3.5 3.3 0 3.5 0.2 3.5 3.5 0 3.3 -0.2 3.5 -3.5 3.5 -3.3 0 -3.5 -0.2 -3.5 -3.5z"/>
  <path d="M724.6 562.4 c-1.1 -8.1 -1 -8.4 2.8 -8.4 3.2 0 3.4 0.2 4 4.6 1.1 8.1 1 8.4 -2.8 8.4 -3.2 0 -3.4 -0.2 -4 -4.6z"/>
  <path d="M145.8 553.1 l-3.3 -2.9 0 -78.7 0 -78.7 3.6 -3.3 c4.9 -4.4 8 -4.7 41.9 -4.3 25.4 0.4 28 0.6 33.5 2.6 11.4 4.3 19.2 11.9 23 22.7 2.2 6.3 3.1 23.9 1.6 32 -1.2 6.7 -6.9 19.1 -10.1 22 -2 1.8 -2 1.8 3.1 6.6 3.1 3.1 6.2 7.4 8.2 11.6 3.2 6.8 3.2 6.9 3.2 22.8 0 14.4 -0.2 16.6 -2.3 21.8 -4.4 10.9 -13.3 19.7 -24.2 23.8 -10.3 3.9 -19 4.8 -47.7 4.9 l-27.3 0 -3.2 -2.9z m50.7 -32.2 c8.6 -2.4 14.4 -9.8 14.5 -18.7 0 -6.2 -2.2 -10.7 -7 -13.8 -3.5 -2.3 -5.5 -2.8 -12.6 -3.2 l-8.4 -0.5 0 18.7 0 18.6 4.8 0 c2.6 0 6.5 -0.5 8.7 -1.1z m-1.3 -69.9 c6.1 -1.7 12.8 -11 12.8 -17.7 0 -3 -3.5 -9.5 -6.1 -11.4 -3.1 -2.2 -13.9 -4.3 -17 -3.4 -1.8 0.6 -1.9 1.8 -1.9 17.1 l0 16.4 4.3 0 c2.3 0 5.8 -0.5 7.9 -1z"/>
  <path d="M286.5 540 c-16.2 -3.5 -26.3 -12.5 -30 -26.5 -1.2 -4.9 -1.5 -13.2 -1.5 -47.6 l0 -41.7 2.6 -3.1 c3.4 -4 8.9 -5.5 19 -4.8 8.8 0.5 12.3 2.1 14.2 6.3 0.8 1.7 1.2 13.2 1.2 37.7 0 21.4 0.4 36.7 1.1 39 1.3 4.7 4 7.2 9.2 8.6 5.8 1.5 12.4 -1.7 15.1 -7.4 1.8 -3.7 1.9 -6.1 1.7 -38.1 -0.2 -37.3 0 -39 5.4 -43.2 2.5 -2 4 -2.2 13.7 -2.2 l11 0 3.3 3.3 c2.4 2.4 3.5 4.6 4 7.8 0.4 2.4 0.5 21.5 0.3 42.4 -0.3 35.8 -0.5 38.3 -2.5 43.7 -4.5 12.2 -12.1 19.4 -25.3 23.9 -5.5 1.9 -8.9 2.3 -22.5 2.5 -8.8 0.2 -17.8 -0.1 -20 -0.6z"/>
  <path d="M368 539 c-6.2 -1.5 -9 -7.4 -9 -19 0 -4.2 0.7 -7.9 1.9 -10.5 2 -4.3 14.8 -21.4 33.4 -44.5 l11.7 -14.5 -19.6 -0.5 c-19 -0.5 -19.6 -0.6 -21.5 -2.8 -4.2 -5.3 -5.1 -16.1 -1.9 -22.8 3.7 -7.5 3.8 -7.5 45.7 -7.2 40.6 0.3 40.6 0.3 44.5 6.7 3.1 4.9 3.1 17.7 0.1 23.8 -2.6 5.3 -14 21.5 -29.5 42.2 l-11.7 15.6 16.7 0.5 c23.3 0.7 25.2 2 25.2 16.8 0 8.7 -2.1 13.5 -6.6 15.3 -3.4 1.2 -74.7 2.1 -79.4 0.9z"/>
  <path d="M468.1 539.2 c-5.8 -0.4 -9.8 -3.3 -11.1 -8 -1.4 -5.3 -1.2 -16.7 0.4 -20.7 1.5 -3.5 10.6 -15.9 32.5 -44 l12.4 -16 -19 -0.5 c-20.4 -0.5 -21.1 -0.7 -23.9 -6.1 -1.8 -3.5 -1.9 -16.4 -0.1 -19.9 0.7 -1.3 2.8 -3.5 4.6 -4.7 3.4 -2.3 3.6 -2.3 38.8 -2.3 22.9 0 37 0.4 39.9 1.1 6.7 1.7 8.8 5.3 9.2 15.5 0.6 12.8 2.7 9.3 -41.5 69.2 l-2.4 3.2 15.8 0.1 c18.1 0 21.7 0.9 25 5.8 1.9 2.8 2.3 4.7 2.3 10.8 0 9.8 -1.9 13.9 -6.9 15.3 -3.3 0.9 -66.1 1.9 -76 1.2z"/>
  <path d="M608.5 537.8 c-7 -1.3 -22 -8.7 -28.2 -13.9 -16.4 -13.8 -24.8 -32.4 -26 -56.9 -1.2 -27.9 5.2 -47 20.6 -61.2 7.2 -6.7 12.8 -10.2 22 -13.6 5.8 -2.2 8.6 -2.6 23.4 -3 18 -0.5 26.3 0.5 32.9 3.9 6.1 3.1 7.3 5.9 7.2 16.9 -0.1 10.1 -1.6 15 -5.3 17 -2.7 1.4 -9.4 1.2 -17.1 -0.5 -17.6 -3.9 -29.7 0.7 -37.6 14.1 -7.7 13.2 -7 34.4 1.7 47.3 4.6 6.9 10.9 11.5 18.9 13.8 5.1 1.5 6.2 1.4 16.8 -0.3 10.1 -1.6 11.7 -1.7 15.4 -0.4 3.3 1.2 4.7 2.5 6.6 6 2.1 3.9 2.3 5.5 2 12.6 -0.6 12.2 -4.1 16.1 -16.3 18.3 -7 1.3 -30 1.3 -37 -0.1z"/>
  <path d="M726.6 537.7 c-2.1 -0.6 -4.8 -2.5 -6 -4 -2 -2.7 -2.1 -4.3 -2.6 -36.5 -0.3 -18.5 -0.9 -34.5 -1.4 -35.4 -1.1 -2.4 -5.1 -4.8 -8 -4.8 -1.4 0 -4 1.3 -5.8 2.9 l-3.3 2.9 -0.1 29.9 c-0.2 41.2 0.1 37.8 -3.3 41.5 -2.8 3.1 -3.1 3.2 -12.8 3.6 -12 0.5 -16.6 -1 -18.7 -6 -1.1 -2.7 -1.5 -17.5 -1.7 -75.8 -0.4 -69 -0.3 -72.7 1.4 -75.4 2.6 -3.9 7.4 -5.6 15.9 -5.6 5.1 0 8.3 0.6 11.2 2 6.9 3.3 7.1 3.9 7.4 28.3 0.3 20 0.5 21.8 2 21.2 5.9 -2.5 11.6 -3.5 19.7 -3.5 16.7 0 25 4.3 30.7 15.7 l3.3 6.8 0.3 41 c0.2 37.7 0.1 41.3 -1.5 44.4 -2.9 5.7 -6 7.2 -14.9 7.7 -4.7 0.2 -9.5 -0.1 -11.8 -0.9z"/>
  <path d="M775.4 537.2 c-8.7 -3.1 -13.8 -8.3 -17.4 -17.9 -1.6 -4.4 -2 -7.8 -2 -18.3 0 -19.4 3.3 -26.7 14.7 -32.7 7.4 -4 14.8 -5.3 29 -5.3 6.2 0 11.3 -0.3 11.3 -0.8 0 -1.9 -3.5 -5.5 -6.6 -6.8 -4.8 -2 -8.9 -1.7 -18.4 1.1 -10 3 -14.4 3.1 -18.7 0.5 -4.7 -2.8 -6.7 -7.3 -6.8 -15 0 -5 0.5 -7.1 2 -9.2 4.6 -6.1 15.2 -9.6 31.5 -10.5 25.5 -1.3 41.6 5.5 48.3 20.5 3.9 8.6 4.9 20.8 4.5 57.4 -0.3 31.5 -0.3 31.8 -2.6 34 -1.9 1.9 -3.5 2.3 -10.2 2.7 -9.8 0.4 -14.5 -0.4 -17 -2.9 -1.9 -1.9 -2 -1.8 -8.2 1.2 -5.7 2.9 -7.3 3.2 -17.3 3.5 -8.7 0.3 -12 0 -16.1 -1.5z m29.6 -32.7 c4.3 -2.2 6 -5.3 6 -10.9 l0 -4.9 -5.9 0.6 c-6.9 0.6 -10.9 2.9 -12.8 7.4 -1.4 3.4 -1.2 4.4 1.5 7.6 1.9 2.1 7.3 2.2 11.2 0.2z"/>
  <path d="M879 537.2 c-8 -2.3 -14.1 -8.8 -17 -17.8 -2 -6.3 -2.3 -9.7 -2.7 -36.6 l-0.6 -29.8 -3.9 0 c-3 0 -4.6 -0.7 -6.9 -2.9 -2.7 -2.8 -2.9 -3.4 -2.9 -11.1 0 -12 2.5 -16.3 10 -17.2 2.5 -0.3 2.5 -0.4 3 -12.1 0.5 -11.5 0.6 -12 3.3 -14.3 3.8 -3.3 10.1 -4.7 17.4 -4.1 13.8 1.3 16.3 4.5 16.3 20.7 l0 10 6.8 0 c14.8 0 18.2 3.1 18.2 16.7 0 7.7 -0.2 8.5 -2.9 11.5 -2.8 3.2 -3.2 3.3 -12.3 3.8 l-9.3 0.5 -0.3 9.5 c-0.1 5.2 0.1 16 0.6 23.9 l0.8 14.4 3.2 2.8 c2.5 2.2 4.4 2.9 10.1 3.5 9 0.8 10.2 2.1 10.9 11.2 0.5 8 -0.8 13.1 -4 15.1 -6.7 4.2 -27.2 5.4 -37.8 2.3z"/>
  <path d="M541 372.8 c0 -3.2 1.5 -8 4.8 -15.9 8.7 -20.4 8.3 -18.8 5.7 -23.4 -4.9 -8.4 -6.7 -16.2 -6.8 -29 -0.1 -14.7 1.5 -20.6 8.1 -30.3 5.8 -8.7 12.1 -14 21.4 -18.6 11 -5.4 17.2 -6.6 33.4 -6.6 16.7 0 25.7 1.9 36.7 7.7 17.9 9.6 27.6 26.5 27.7 48.4 0 10.2 -1.4 17.2 -5 24.5 -6.9 14.1 -22.4 25.9 -39.2 29.9 -7.4 1.7 -28.4 2 -35.7 0.4 l-5 -1 -18.3 8.7 c-12.4 5.9 -19.8 8.9 -23 9.2 l-4.8 0.5 0 -4.5z"/>
 </g>
 <g fill="#ecbf28">
  <path d="M811.5 795.9 c-5.2 -2.5 -38.6 -17.2 -54.5 -24 -9.7 -4.2 -13.8 -5.4 -18.2 -5.5 -4.7 -0.1 -8.3 -1.4 -22.9 -8 -28.6 -13 -37.6 -18.9 -57 -37.2 -13.3 -12.6 -21 -18.2 -30.1 -22 -16.8 -7 -30.2 -7.8 -45.3 -2.8 -12.9 4.4 -20 9.3 -36.8 25.4 -20.7 20 -30.8 25.9 -48.2 28.3 -16.8 2.2 -31.6 -0.4 -46.7 -8.2 -6.3 -3.3 -10.5 -6.5 -17.4 -13.4 -10.4 -10.3 -15.8 -18.8 -20 -31.5 -2.6 -8 -2.8 -9.5 -2.8 -26.5 0 -17 0.1 -18.5 2.7 -26 7.1 -21 20.8 -37 39.2 -46.1 12.3 -6 18.5 -7.4 33 -7.4 14.1 0 20.5 1.4 32 6.9 9.8 4.7 14.9 9.1 26.5 23.1 13.8 16.7 23.7 24.1 36.7 27.5 11.9 3.1 24.8 1.4 37.8 -5 8.8 -4.3 16.5 -10.1 33 -25 13.8 -12.4 18.1 -15.7 26.6 -20.4 17 -9.2 45.2 -10.6 64.6 -3.2 22.9 8.9 39.7 27.3 47.9 52.3 2.3 7.2 2.8 10.4 3.2 24.3 0.4 14.3 0.2 16.9 -1.8 24.1 -2 7.5 -2 8.5 -0.7 12.5 1.3 3.8 1.3 4.6 -0.1 6.7 -2 3 -1.5 5 7.9 31.2 20 55.5 18.9 52 16.8 51.9 -0.8 0 -3.2 -0.9 -5.4 -2z"/>
  <path d="M576 618.2 c-9.9 -3.7 -14.2 -6.7 -34.5 -24.2 -14 -12 -18.9 -15.6 -26.5 -19.2 -7 -3.4 -9.5 -3.6 -24.1 -2.3 -7.2 0.7 -7.7 0.6 -10.7 -2 -2.9 -2.4 -3.2 -3.2 -3.2 -8.1 0 -5.6 1.9 -10.9 4.2 -11.5 0.7 -0.2 52.6 -0.2 115.3 0.1 62.7 0.3 114.5 0.1 115.2 -0.3 0.6 -0.4 4.4 -0.7 8.4 -0.5 7.1 0.3 7.4 0.4 9.7 3.8 3.4 4.9 2.8 13.3 -1.2 16.7 -3.6 3.1 -13.8 3.3 -17.6 0.3 -3.1 -2.4 -8.6 -2.5 -26 -0.6 -22.6 2.5 -29.9 6.3 -48.4 25 -19 19.4 -29.2 24.7 -47 24.5 -5.9 0 -10.7 -0.6 -13.6 -1.7z"/>
 </g>
 <g fill="#7639c3">
  <path d="M543 719.4 l4.5 -4.5 0.3 3.1 c0.4 3.8 -1.7 6 -5.9 6 l-3.3 0 4.4 -4.6z"/>
  <path d="M790.6 714.9 c-0.2 -0.8 -1.1 -3.5 -1.9 -6.1 -1.4 -4.4 -1.4 -5.2 0.9 -14 7.4 -29 -1.8 -61 -23.5 -81 -13.2 -12.2 -24.8 -17.5 -44.3 -20.3 -2.4 -0.4 -3.8 -1.1 -3.8 -2 0 -5.4 34.4 3.9 41.7 11.2 1.1 1.1 2.7 2.2 3.6 2.6 0.9 0.3 1.7 1.6 1.7 2.7 0 1.4 0.7 2 2.2 2 2.7 0 7.8 4.7 7.8 7.2 0 1.5 0.8 1.8 4.7 1.8 3.8 0 5.2 0.5 6.9 2.6 2 2.2 2.8 2.5 8.1 2.2 5.5 -0.3 5.8 -0.4 6.1 -3 0.2 -2 -0.1 -2.8 -1.1 -2.8 -0.9 0 -4 -2.4 -7.1 -5.4 -3.1 -3 -7.6 -6.9 -10.1 -8.6 -3.9 -2.7 -4.5 -3.6 -4.5 -6.5 0 -3.3 0.2 -3.5 3.6 -3.5 3.8 0 8.4 2.8 16.4 10 4 3.6 4.3 4.1 2.8 5.1 -2.4 1.4 -2.3 2.4 1.1 7.2 14.6 21.4 16.5 42.7 6.1 69.5 -3 7.7 -3.3 8.2 -6.1 8.2 -1.7 0 -3.7 -0.7 -4.6 -1.5 -2.1 -2.1 -2.8 -1.3 -4.3 5 -1.1 4.5 -1.1 6.6 -0.2 10.2 1 3.7 1 4.8 -0.3 6.5 -1.1 1.6 -1.5 1.8 -1.9 0.7z"/>
  <path d="M419 706.5 c0 -4.3 1 -4.4 3.3 -0.6 2.2 3.8 2.2 4.1 -0.8 4.1 -2.2 0 -2.5 -0.4 -2.5 -3.5z"/>
  <path d="M589 692.6 c0 -1.3 2.8 -2.6 5.8 -2.6 0.6 0 1.2 0.9 1.2 2 0 1.6 -0.7 2 -3.5 2 -2.3 0 -3.5 -0.5 -3.5 -1.4z"/>
  <path d="M609 692 c0 -2.1 1 -2.4 4.8 -1.4 3.6 1 2.7 3.4 -1.3 3.4 -2.8 0 -3.5 -0.4 -3.5 -2z"/>
  <path d="M578.2 651.4 c-9.4 -2.5 -12.4 -5.4 -5.7 -5.4 1.9 0 3.5 0.4 3.5 0.9 0 0.5 2.5 1.2 5.5 1.6 4.5 0.5 5.5 1 5.5 2.6 0 2.3 -1.5 2.3 -8.8 0.3z"/>
  <path d="M600 651.2 c0 -1.4 1.3 -2.1 5.6 -3 5.6 -1.1 19.6 -7 20.2 -8.4 0.2 -0.5 1 -0.8 1.8 -0.8 0.8 0 1.4 -0.4 1.4 -1 0 -0.5 0.6 -1 1.4 -1 0.8 0 1.6 -0.7 2 -1.5 0.3 -0.8 1.2 -1.5 2 -1.5 0.7 0 1.6 -0.7 2 -1.5 0.3 -0.8 1.7 -1.5 3.1 -1.5 1.7 0 2.5 -0.5 2.5 -1.8 0 -2.8 2.1 -4.2 5.9 -4.2 l3.6 0.1 -5.5 5 c-12.1 10.9 -24.8 18.3 -36.5 21.4 -7.7 2 -9.5 1.9 -9.5 -0.3z"/>
  <path d="M414 647.3 c0 -4.3 1.1 -7.3 2.6 -7.3 0.9 0 1.4 -1.1 1.4 -3 0 -3.2 1.9 -8 3.2 -8 0.4 0 0.8 -0.7 0.8 -1.5 0 -0.8 0.9 -1.5 2 -1.5 1.6 0 2 -0.7 2 -3 0 -2 0.5 -3 1.5 -3 0.8 0 1.5 -0.8 1.5 -1.7 0 -2.5 8.2 -10.3 10.8 -10.3 1.5 0 2.2 -0.6 2.2 -2 0 -1.1 0.7 -2 1.5 -2 0.8 0 1.5 -0.4 1.5 -1 0 -0.5 1.1 -1 2.5 -1 1.4 0 2.5 -0.6 2.5 -1.3 0 -1.5 6.1 -4.7 9 -4.7 1 0 2 -0.5 2.2 -1.1 0.2 -0.6 2.5 -1.3 5.1 -1.6 6.3 -0.7 6.6 1.8 0.5 3.6 -7 2.1 -19.3 8.9 -25 13.9 -10.7 9.3 -19.8 22.4 -23.5 34 -1.8 5.6 -4.3 7 -4.3 2.5z"/>
  <path d="M560.2 642.5 c-3.2 -2.4 -6.5 -5.2 -7.2 -6.1 -1.2 -1.4 -0.9 -1.5 2.6 -1.2 3.2 0.2 4 0.7 4.2 2.6 0.3 1.6 1 2.2 2.8 2.2 1.3 0 2.4 0.5 2.4 1 0 0.6 0.7 1 1.5 1 0.9 0 1.5 0.9 1.5 2.5 0 1.4 -0.4 2.5 -0.9 2.5 -0.5 0 -3.6 -2 -6.9 -4.5z"/>
  <path d="M546.8 630 l-2.8 -3.5 2.6 -0.3 c3.3 -0.4 3.6 -0.1 3.2 3.9 l-0.3 3.4 -2.7 -3.5z"/>
  <path d="M652 621.3 c0 -3.8 1.6 -5.3 5.9 -5.3 3.4 0 3.4 0 1.5 2.1 -1 1.2 -3.1 3 -4.6 4.1 l-2.8 1.9 0 -2.8z"/>
  <path d="M537.8 619 l-2.8 -3.5 2.6 -0.3 c3.3 -0.4 3.6 -0.1 3.2 3.9 l-0.3 3.4 -2.7 -3.5z"/>
  <path d="M662.2 611.9 c0.2 -2.9 0.7 -3.4 3.1 -3.7 1.9 -0.2 2.7 -0.9 2.7 -2.3 0 -1 0.7 -1.9 1.5 -1.9 0.8 0 1.5 -0.4 1.5 -1 0 -0.5 0.7 -1 1.5 -1 0.8 0 1.5 -0.4 1.5 -1 0 -0.5 0.7 -1 1.5 -1 0.8 0 1.5 -0.4 1.5 -0.8 0 -1.1 4.6 -3.2 7 -3.2 1.1 0 2 -0.4 2 -0.9 0 -1.3 11.2 -4.2 19 -4.8 6 -0.5 7 -0.4 7 1 0 1.1 -1.2 1.8 -3.7 2.2 -18.2 2.6 -28.6 7.3 -43.1 19.1 l-3.4 2.8 0.4 -3.5z"/>
  <path d="M525 606 l-3.5 -2.9 3.8 -0.1 c3.5 0 3.7 0.2 3.7 3 0 1.7 -0.1 3 -0.3 3 -0.1 0 -1.8 -1.3 -3.7 -3z"/>
  <path d="M557 604.9 l0 -3 3 2.1 c4.4 3.1 4.5 4 0.6 4 -3.3 0 -3.6 -0.2 -3.6 -3.1z"/>
  <path d="M505.3 596.8 c-4.5 -1.5 -4.3 -3.8 0.2 -3.8 3.1 0 3.5 0.3 3.5 2.5 0 1.4 -0.1 2.5 -0.2 2.4 -0.2 -0.1 -1.8 -0.6 -3.5 -1.1z"/>
  <path d="M632.9 593.2 c1.8 -2.5 11.7 -11.8 17.4 -16.1 1.5 -1.2 1.7 -1 1.7 1.8 0 2.9 -0.2 3.1 -3.5 3.1 -3.2 0 -3.5 0.2 -3.5 3 0 2.8 -0.3 3 -3.4 3 -3.3 0 -3.5 0.2 -3.8 3.8 -0.3 3.4 -0.6 3.7 -3.7 4 l-3.3 0.3 2.1 -2.9z"/>
  <path d="M472 593 c0 -1.6 0.7 -2 3.5 -2 4 0 4.9 2.4 1.3 3.4 -3.8 1 -4.8 0.7 -4.8 -1.4z"/>
  <path d="M910.7 584 c-1.4 -1.1 -3.5 -2 -4.6 -2 -1.2 0 -2.1 -0.4 -2.1 -0.9 0 -0.5 -3 -1.9 -6.6 -3.1 l-6.6 -2.2 0.7 -10 0.7 -9.9 5.5 -8.2 c4.2 -6.3 5.1 -8.3 3.9 -8.5 -3.4 -0.7 -1.4 -3 3.7 -4.2 10.3 -2.4 13.6 -6.6 12.3 -15.5 -0.9 -5.7 -2.8 -7.1 -10.9 -8 -5.5 -0.5 -7.5 -1.2 -10 -3.4 -3.1 -2.8 -3.1 -2.8 -3.9 -17.2 -0.5 -7.9 -0.7 -20 -0.6 -26.9 l0.3 -12.5 5.8 -0.3 c4 -0.2 5.7 0.1 5.7 1 0 0.9 0.3 0.9 1.2 0 0.7 -0.7 2.1 -1.2 3.1 -1.2 1 0 3.4 -1.5 5.3 -3.4 3 -3 3.4 -4 3.4 -8.7 0 -10.5 -4.5 -13.9 -18.2 -13.9 l-6.8 0 0 -10 c0 -15.1 -1.6 -17.9 -11.8 -20.1 -6.1 -1.2 -11.8 0 -15.9 3.5 -2.7 2.3 -2.8 2.8 -3.3 14.3 l-0.5 11.8 -2.9 0.3 c-4.5 0.5 -7.5 3 -8.8 7.3 -0.6 2.1 -1.7 3.9 -2.3 3.9 -0.7 0 -2 1.1 -2.9 2.4 -1.4 2.2 -1.4 2.8 -0.1 5.8 l1.4 3.3 0.1 -3.2 c0 -2.3 0.5 -3.3 1.5 -3.3 0.8 0 1.5 0.7 1.5 1.6 0 0.8 1.3 2.9 2.9 4.5 2.3 2.3 3.9 2.9 7 2.9 3.4 0 4.1 0.3 4.1 2 0 1.6 -0.7 2 -3.7 2 -6.2 0 -8.3 -1 -8.3 -3.6 0 -1.9 -0.5 -2.4 -2.6 -2.4 -2.2 0 -2.5 0.3 -2.1 2.3 0.4 1.2 0.9 5.9 1.3 10.5 0.6 7.1 0.5 8.2 -0.9 8.2 -1.7 0 -2.1 -1.6 -3.2 -12.1 -2.4 -22 -23.1 -34.6 -51.7 -31.2 -19.8 2.4 -29.6 9.5 -26.7 19.6 1.3 4.4 3.6 7.5 7 9.2 2.8 1.5 3.5 1.5 11.7 -0.9 10.6 -3.2 12.2 -3.2 12.2 -0.6 0 1.3 -0.7 2 -1.8 2 -1.1 0 -4.5 0.9 -7.7 2 -5.7 1.9 -13.7 2.6 -16.9 1.4 -0.9 -0.3 -1.6 -1.7 -1.6 -3 0 -1.9 -0.5 -2.4 -2.4 -2.4 -1.3 0 -2.7 -0.7 -3 -1.6 -0.5 -1.3 -1 -1.2 -3.5 0.8 -1.7 1.3 -3 2.9 -3 3.6 -0.1 0.6 -0.8 1.2 -1.6 1.2 -0.9 0 -1.6 -1.4 -2 -3.7 -1.9 -12.4 -6.4 -19.4 -14.9 -23.8 -5.5 -2.8 -6.8 -3 -16.1 -3 -9.6 0 -10.5 0.2 -17.2 3.5 l-7.2 3.6 -0.3 -23.6 c-0.3 -26.3 -0.4 -26.7 -7.4 -30 -5 -2.5 -11.8 -2.6 -16.4 -0.2 -3.8 1.9 -5.6 4.8 -6.5 10.3 -0.3 2.1 -1.5 4.9 -2.7 6.5 -1.9 2.4 -2.2 3.8 -1.9 10.9 0.3 10.2 -1.2 16.5 -3.9 16.5 -1.3 0 -2 0.7 -2 2 0 1.8 -0.7 2 -5.6 2 -3.1 0 -8.5 -0.5 -12 -1.2 -5.1 -0.9 -6.4 -1.5 -6.4 -3 0 -2.2 0.8 -2.2 10.5 -0.2 9 1.9 11.5 1.2 14 -3.7 2.4 -4.5 2.4 -15.8 0.2 -19.3 -4.2 -6.4 -15.7 -9.1 -35.4 -8.4 -14.8 0.6 -21.7 2.3 -31.6 8.2 -6.7 3.9 -16.5 13.2 -20.8 19.9 -3.8 5.8 -8.3 18 -9.4 25 -1.4 10.1 -1.6 10.7 -3.2 10.7 -1.4 0 -1.5 -1 -0.9 -7.6 0.4 -4.1 1.6 -10.3 2.6 -13.7 1.1 -3.3 1.8 -6.3 1.6 -6.4 -0.2 -0.2 -1.5 0.8 -2.9 2.1 -1.7 1.6 -2.7 3.6 -2.7 5.4 0 3.9 -2.7 12.8 -4.5 14.6 -0.8 0.8 -1.5 1.9 -1.5 2.5 0 0.6 -0.4 1.1 -1 1.1 -0.5 0 -1 0.7 -1 1.5 0 0.9 -0.7 1.8 -1.5 2.1 -0.8 0.4 -1.5 1.2 -1.5 2 0 0.8 -0.4 1.4 -1 1.4 -0.5 0 -1 0.7 -1 1.5 0 0.9 -0.7 1.8 -1.5 2.1 -0.8 0.4 -1.5 1.2 -1.5 2 0 0.8 -0.7 1.4 -1.5 1.4 -0.8 0 -1.5 0.9 -1.5 2 0 1.1 -0.4 2 -1 2 -0.5 0 -1 0.7 -1 1.5 0 0.9 -0.7 1.8 -1.5 2.1 -0.8 0.4 -1.5 1.3 -1.5 2 0 0.8 -0.7 1.7 -1.5 2 -0.8 0.4 -1.5 1.3 -1.5 2 0 0.8 -0.7 1.7 -1.5 2 -0.8 0.4 -1.5 1.2 -1.5 2 0 0.8 -0.7 1.4 -1.5 1.4 -0.8 0 -1.5 0.9 -1.5 2 0 1.1 -0.7 2.3 -1.5 2.6 -0.8 0.4 -1.5 1.2 -1.5 2 0 0.8 -0.7 1.4 -1.5 1.4 -0.8 0 -1.5 0.9 -1.5 2 0 1.1 -0.4 2 -1 2 -0.5 0 -1 0.7 -1 1.5 0 0.8 -0.4 1.5 -1 1.5 -0.5 0 -1 0.7 -1 1.5 0 0.9 -0.7 1.8 -1.5 2.1 -0.8 0.4 -1.5 1.2 -1.5 2 0 0.8 -1 1.4 -2.5 1.4 -1.4 0 -2.5 -0.4 -2.5 -0.8 0 -1 4.7 -7.8 19.5 -27.7 26.6 -36.1 28 -38.4 27.3 -47 -0.6 -7.4 -3.5 -11 -9.9 -12.5 l-5.1 -1.3 0.6 -3.5 c0.3 -1.9 1 -4 1.5 -4.5 0.5 -0.5 4.7 -1.1 9.3 -1.4 6.3 -0.3 10.1 0 15.6 1.5 5.5 1.5 7.2 1.7 7.2 0.7 0 -1.7 11.1 -11.9 16.1 -14.8 3.2 -1.8 3.9 -2.7 3.9 -5.3 0 -2.8 0.8 -3.6 7.1 -7.5 14.4 -8.9 18.5 -11.9 24.7 -18.2 l6.3 -6.4 -5.3 0.8 c-2.9 0.4 -8.1 0.8 -11.5 0.8 -5.7 0.1 -6.3 -0.1 -6.3 -1.9 0 -1.8 0.7 -2 7.8 -2 28.5 -0.1 53.5 -19.7 57.5 -45 4.2 -27.2 -13.1 -51.7 -41.9 -59 -9.6 -2.5 -27.2 -2.7 -35.9 -0.5 -8.2 2.1 -19.5 7.8 -25.3 12.7 -6.2 5.3 -13.8 16.5 -15.8 23.6 -2.6 8.7 -2.1 22.3 0.9 31.1 l2.5 7.1 -2.4 0 c-1.9 0 -2.6 -0.8 -3.9 -5.2 -0.9 -2.9 -1.9 -9.9 -2.2 -15.5 -0.7 -12.2 -0.7 -12.2 -8.9 0.9 -8.7 13.7 -14.3 29.9 -14.4 41.3 -0.1 12.6 -3.6 25.4 -11.4 41.5 -2 4.1 -3.6 8 -3.6 8.6 0 0.6 -0.9 2.2 -1.9 3.5 -1 1.4 -2.6 4.8 -3.4 7.7 l-1.6 5.2 8 0 c7.2 0 7.9 0.2 7.9 2 0 1.9 -0.7 2 -22.1 2 -14.3 0 -22.8 0.4 -24.2 1.1 -3.8 2 -6.6 5.1 -7.2 8 -0.5 2.2 -1.2 2.9 -3.1 2.9 -2.2 0 -2.4 0.4 -2.4 4.9 0 5 -1.6 11.1 -3 11.1 -0.4 0 -1 1.3 -1.3 2.8 -0.3 1.5 -1.7 4 -3.1 5.5 -1.4 1.6 -2.6 3.2 -2.6 3.8 0 0.5 -0.4 0.9 -1 0.9 -0.5 0 -1 0.7 -1 1.5 0 0.9 -0.7 1.8 -1.5 2.1 -0.8 0.4 -1.5 1.2 -1.5 2 0 0.8 -0.7 1.4 -1.5 1.4 -0.8 0 -1.5 0.9 -1.5 2 0 1.1 -0.4 2 -1 2 -0.5 0 -1 0.7 -1 1.5 0 0.8 -0.7 1.5 -1.5 1.5 -0.8 0 -1.5 0.9 -1.5 2 0 1.1 -0.7 2 -1.5 2 -0.8 0 -1.5 0.9 -1.5 2 0 1.1 -0.4 2 -1 2 -0.5 0 -1 0.7 -1 1.5 0 0.9 -0.7 1.8 -1.5 2.1 -0.8 0.4 -1.5 1.2 -1.5 2 0 0.7 -0.6 1.7 -1.3 2.1 -0.8 0.4 -1.6 1.6 -2 2.6 -0.3 0.9 -1.3 1.7 -2.2 1.7 -0.8 0 -1.5 0.9 -1.5 2 0 1.1 -0.4 2 -1 2 -0.5 0 -1 0.7 -1 1.5 0 0.9 -0.7 1.8 -1.5 2.1 -0.8 0.4 -1.5 1.2 -1.5 2 0 0.8 -0.4 1.4 -1 1.4 -0.5 0 -1 0.7 -1 1.5 0 1 -1 1.5 -3.1 1.5 -2.1 0 -2.8 -0.4 -2.3 -1.2 0.4 -0.7 7.6 -10.5 15.9 -21.8 18.4 -24.8 27.7 -38.4 29.5 -42.9 1.9 -4.8 1.5 -12.6 -0.9 -16.5 -3.7 -6 -4.4 -6.1 -40.1 -6.4 -17.9 -0.2 -33.9 -0.1 -35.6 0.3 -4 0.7 -8.1 4.8 -9.5 9.4 -1.3 4.3 0 10.6 3 14.3 1.9 2.2 2.4 2.3 22.4 2.8 11.3 0.3 20.8 0.8 21.2 1.2 0.8 0.7 -3.7 6.8 -19.4 26.3 -17 21 -27.9 36.3 -29.2 40.5 -1.5 4.9 -3.9 5.4 -3.9 0.8 0 -3.8 3.4 -11.8 5 -11.8 0.5 0 1 -0.7 1 -1.6 0 -0.9 0.9 -1.8 2 -2.1 1.1 -0.3 2 -1.4 2 -2.4 0 -1.1 0.5 -1.9 1 -1.9 0.6 0 1 -0.7 1 -1.6 0 -0.9 0.9 -1.8 2 -2.1 1.1 -0.3 2 -1.4 2 -2.4 0 -1.1 0.7 -1.9 1.5 -1.9 0.8 0 1.5 -0.9 1.5 -2 0 -1 0.6 -2.3 1.3 -2.7 0.8 -0.4 1.6 -1.6 2 -2.5 0.3 -1 1.3 -1.8 2.1 -1.8 0.8 0 1.6 -1 1.8 -2.2 0.2 -1.5 1.1 -2.4 2.6 -2.6 1.6 -0.3 2.2 -1 2.2 -2.9 0 -1.6 0.7 -2.7 2 -3 1.1 -0.3 2 -1.4 2 -2.5 0 -1.1 0.9 -2.2 2 -2.5 1.1 -0.3 2 -1.4 2 -2.4 0 -1.1 0.6 -2.2 1.4 -2.5 0.8 -0.3 1.6 -1.4 1.9 -2.5 0.3 -1 1.2 -1.9 2.1 -1.9 0.9 0 1.6 -0.7 1.6 -1.5 0 -1.3 -2.4 -1.5 -15.2 -1.5 -18.8 0 -22.8 -0.6 -22.8 -3.1 0 -1.2 -0.7 -1.9 -1.9 -1.9 -2.6 0 -4.1 -4.7 -4.1 -12.6 0 -5.7 -0.2 -6.4 -2 -6.4 -1.6 0 -2 0.7 -2 3.5 0 5.1 -2.5 4.5 -3.9 -0.9 -0.7 -2.8 -2.2 -5.3 -4.2 -7 -2.7 -2.3 -3.9 -2.6 -10.9 -2.6 -7 0 -8.2 0.3 -10.9 2.6 -1.7 1.4 -3.6 4.3 -4.2 6.5 -1.7 5.4 -3.9 5.1 -3.9 -0.5 0 -3.7 0.6 -5.1 3.4 -8.1 l3.5 -3.6 -4.6 -2 c-2.4 -1 -4.9 -1.9 -5.4 -1.9 -0.5 0 -0.9 -0.3 -0.9 -0.8 0 -1.4 -8 -4.2 -12.3 -4.2 -2.4 0 -6.9 0.7 -10 1.5 -6.3 1.6 -11.3 1.9 -11.9 0.8 -0.7 -1.7 -13.6 -5.3 -18.6 -5.3 -6.5 0 -11.2 2.4 -11.2 5.7 0 1.8 -0.6 2.3 -2.4 2.3 -2.3 0 -2.4 0.2 -1.9 6 0.5 5 0.3 6 -1 6 -1.1 0 -1.9 -1.7 -2.7 -5.7 -3.3 -15.9 -12.8 -25.4 -29.5 -29.8 -4.5 -1.1 -11.5 -1.5 -30 -1.5 -13.2 0 -25.7 0.5 -27.9 0.9 -4.6 1.1 -9.3 5.3 -10.1 9.2 -1 4.5 -3.5 3.7 -3.5 -1 0 -4.3 3.5 -9.5 7 -10.6 3.1 -1 2.5 -1.8 -3.4 -5 -3 -1.6 -5.7 -3.7 -5.9 -4.6 -0.3 -1.2 -3.1 -2.3 -9.3 -3.7 -8.5 -2 -17.9 -5.7 -23.6 -9.6 -2.8 -1.8 -7.5 -2.3 -12.1 -1.1 l-2.9 0.8 0.4 -17.4 c0.3 -19.6 1.2 -22.5 7.8 -26.4 3.3 -1.9 5.8 -2 49 -2.8 61.1 -1.1 109.9 -0.3 114 1.8 5.1 2.7 6.4 5.8 7 17 l0.5 10 101 0.2 c61.5 0.2 101.6 -0.1 102.5 -0.7 1.1 -0.7 1.6 -4.5 2.1 -17.7 1.3 -31.5 9 -55.4 26.1 -81 12.7 -19 25.9 -30.2 49.3 -41.8 30.9 -15.4 72.6 -16.3 107.4 -2.4 29.3 11.7 55 35.9 70.1 65.9 8.8 17.6 13.7 36.7 16 63 0.6 6.8 1.5 12.9 2 13.4 0.6 0.6 27.5 1 69.7 1.1 58.2 0.2 70.1 0.5 77.3 1.8 25.4 4.8 45.5 21.1 52.4 42.4 2.7 8.3 3.2 24.7 2.5 90.8 -0.7 67.1 -0.7 66.7 -6.5 79.4 -3.1 6.8 -11.4 18.1 -16.7 22.6 -4.9 4.2 -10.8 4.8 -15 1.5z m-9.3 -126.2 l1.7 -2.8 -3.5 0 -3.6 0 0 5.3 0 5.2 1.9 -2.4 c1 -1.4 2.6 -3.7 3.5 -5.3z m-45.8 -36.2 c0.8 -0.8 1.4 -2.3 1.4 -3.3 0 -1.5 -0.3 -1.4 -2 0.7 -2.9 3.7 -2.5 5.6 0.6 2.6z"/>
  <path d="M523 577.5 c0 -3.1 1.1 -3.2 4.7 0 l2.8 2.4 -3.7 0.1 c-3.4 0 -3.8 -0.3 -3.8 -2.5z"/>
  <path d="M720 571.7 c0 -0.7 1.3 -1.8 2.9 -2.4 6.6 -2.5 7.7 -10 2 -14.7 -3.8 -3.2 -3.7 -3.8 0.9 -3.4 3 0.2 3.8 0.7 4 2.6 0.2 1.2 0.8 2.2 1.3 2.2 0.5 0 0.9 2.7 0.9 6 0 5.1 -0.4 6.5 -2.5 8.5 -2.7 2.7 -9.5 3.6 -9.5 1.2z"/>
  <path d="M688 568.6 c0 -0.7 1 -1.6 2.3 -2 4.1 -1.1 5.7 -0.7 5.7 1.4 0 1.7 -0.7 2 -4 2 -2.7 0 -4 -0.4 -4 -1.4z"/>
  <path d="M477 559.1 c0 -4.9 0.9 -6.1 4.6 -6.1 3.4 0 3.4 0 1.4 2 -1.1 1.1 -2.2 3.1 -2.6 4.5 -0.9 3.5 -3.4 3.2 -3.4 -0.4z"/>
  <path d="M151.3 556.1 c-5.1 -0.9 -7.3 -2.6 -7.3 -5.7 0 -1.3 -0.4 -2.4 -1 -2.4 -0.5 0 -1 -1.8 -1 -4 0 -5.5 2.7 -5.5 3.6 0 0.5 2.7 1.6 4.8 3.6 6.5 2.9 2.5 3.2 2.5 21.4 2.5 17.7 0 18.4 0.1 18.4 2 0 1.9 -0.6 2 -16.7 1.9 -9.3 -0.1 -18.7 -0.5 -21 -0.8z"/>
  <path d="M199 554.7 c0 -1.1 1.2 -1.8 3.8 -2.2 25.4 -4 38.1 -13.5 43.7 -32.9 2.6 -9 1.8 -25.2 -1.8 -32.8 -3.5 -7.9 -7.1 -12.2 -12.8 -16 l-4.9 -3.1 4.4 -4.7 c6.3 -6.7 10.4 -15.4 12.1 -25.2 0.4 -2.5 1.1 -3.8 2.2 -3.8 1.3 0 1.5 1 1 6.3 -0.5 6.1 -5.1 18.7 -6.8 18.7 -0.5 0 -0.9 0.7 -0.9 1.5 0 0.8 -0.7 1.5 -1.5 1.5 -0.8 0 -1.5 0.9 -1.5 1.9 0 1.1 -0.5 2.3 -1.2 2.7 -0.7 0.5 -0.4 1 1 1.5 1.5 0.6 2.2 1.7 2.2 3.4 0 2 0.5 2.5 2.6 2.5 1.7 0 2.8 0.6 3.1 2 0.3 1.1 0.9 2 1.3 2 1.5 0 5 9.8 6.1 17.1 2 13 -1 33.7 -5.6 38.3 -0.8 0.8 -1.5 1.9 -1.5 2.5 0 0.6 -0.9 1.1 -1.9 1.1 -1.4 0 -2.1 0.8 -2.3 2.8 -0.2 1.9 -0.9 2.8 -2.5 3 -1.3 0.2 -2.3 1 -2.3 1.9 0 0.8 -1.3 2 -3 2.6 -1.6 0.6 -3 1.5 -3 1.9 0 0.4 -1.1 0.8 -2.5 0.8 -1.4 0 -2.5 0.4 -2.5 0.9 0 1.2 -10.8 4.1 -18.4 4.8 -5.6 0.5 -6.6 0.4 -6.6 -1z"/>
  <path d="M704.8 554.3 c-1 -0.2 -1.8 -1.1 -1.8 -1.9 0 -1.1 1.6 -1.4 7 -1.4 3.9 0 7 0.3 7 0.6 0 2.6 -7 4.1 -12.2 2.7z"/>
  <path d="M283.5 539.5 c-2.7 -0.8 -5.3 -1.4 -5.7 -1.5 -0.5 0 -0.8 -0.7 -0.8 -1.5 0 -1 -1 -1.5 -3 -1.5 -1.6 0 -3 -0.4 -3 -0.9 0 -0.5 -0.9 -1.1 -2 -1.4 -1.4 -0.3 -2 -1.4 -2 -3.1 0 -2.1 -0.5 -2.6 -2.5 -2.6 -1.6 0 -2.5 -0.6 -2.5 -1.5 0 -0.8 -0.4 -1.5 -1 -1.5 -0.5 0 -1 -1.3 -1 -3 0 -1.9 -0.5 -3 -1.4 -3 -1.5 0 -3.6 -7 -3.6 -11.9 0 -5.7 2.6 -3.5 4.4 3.6 3.7 15.3 15 24.8 32.9 27.8 2.3 0.4 3.7 1.1 3.7 2 0 1.9 -5.6 1.9 -12.5 0z"/>
  <path d="M313 539.8 c0 -1.1 2.1 -2 7 -3.2 18.2 -4.1 30 -15 32.5 -30.1 1.4 -8.7 1.7 -9.5 3.2 -9.5 1.4 0 1.5 1 0.9 7 -0.5 6.2 -3 14.6 -4.6 16 -0.3 0.3 -1.1 1.7 -1.7 3.3 -1 2.1 -1.9 2.7 -4.3 2.7 -2.7 0 -3 0.3 -3 3 0 2 -0.5 3 -1.5 3 -0.8 0 -1.5 0.5 -1.5 1 0 0.6 -1.3 1 -3 1 -1.9 0 -3 0.5 -3 1.4 0 1.8 -7.8 4.5 -15.2 5.3 -4.8 0.5 -5.8 0.3 -5.8 -0.9z"/>
  <path d="M369 538 c0 -2.1 1.6 -2.5 5.8 -1.4 3.9 1.1 2.7 3.4 -1.8 3.4 -3.3 0 -4 -0.3 -4 -2z"/>
  <path d="M397 538.6 c0 -2.1 3.5 -2.5 25.1 -2.5 10.8 0 20.8 -0.5 22.3 -1 3.8 -1.5 6.6 -6.7 6.6 -12.4 0 -8.1 -2.7 -11.3 -11.2 -13.3 -4.4 -1 -3.5 -3.4 1.2 -3.4 4.6 0 9 1.8 9 3.7 0 0.7 0.7 1.3 1.5 1.3 1.9 0 3 4.1 3 11.5 0 9.1 -0.9 11.5 -4.5 11.5 -2.5 0 -3 0.4 -3 2.4 0 3.2 -2.8 3.6 -28.7 3.6 -17.7 0 -21.3 -0.2 -21.3 -1.4z"/>
  <path d="M466 539 c0 -0.5 -1.1 -1 -2.5 -1 -2.1 0 -2.5 -0.5 -2.5 -3.1 l0 -3 3 2.1 c3 2.1 3.7 2.2 39 2.1 22 -0.1 37 -0.6 38.9 -1.2 2.7 -1 6.1 -5.8 6.1 -8.8 0 -0.6 0.7 -1.1 1.6 -1.1 1.4 0 1.6 0.8 1.1 4.6 -0.6 5.9 -3.2 8.3 -10.5 9.4 -7.9 1.3 -74.2 1.3 -74.2 0z"/>
  <path d="M623 538 c0 -1.7 0.7 -2 5 -2 4.3 0 5 0.3 5 2 0 1.7 -0.7 2 -5 2 -4.3 0 -5 -0.3 -5 -2z"/>
  <path d="M608.8 538.3 c-1.6 -0.2 -2.8 -0.9 -2.8 -1.4 0 -0.5 -1.2 -0.9 -2.6 -0.9 -4.4 0 -14.4 -5 -14.4 -7.1 0 -1.4 -0.7 -1.9 -3 -1.9 -2 0 -3 -0.5 -3 -1.5 0 -0.8 -0.8 -1.5 -1.8 -1.5 -2.3 0 -4.2 -1.9 -4.2 -4.2 0 -1.1 -0.7 -1.8 -1.8 -1.8 -1 0 -2.3 -0.5 -3 -1.2 -0.7 -0.7 -1.2 -2 -1.2 -3 0 -1 -0.7 -1.8 -1.5 -1.8 -1 0 -1.5 -1 -1.5 -3 0 -2.3 -0.4 -3 -2 -3 -1.6 0 -2 -0.7 -2 -3 0 -1.9 -0.5 -3 -1.4 -3 -2.7 0 -8.6 -20.2 -8.6 -29.6 0 -4.9 2.7 -4.6 3.4 0.4 1.3 8.5 4.6 20.2 7.6 26.5 9.2 19.6 29.2 34.7 50.3 38.2 2.3 0.4 3.7 1.1 3.7 2 0 1.5 -3.7 1.8 -10.2 0.8z"/>
  <path d="M636 537.7 c0 -1.1 1.3 -1.8 3.8 -2.2 11.7 -2.1 17.3 -5.9 18.6 -12.9 1 -5.1 3.6 -4.8 3.6 0.4 0 2.2 -0.4 4 -1 4 -0.5 0 -1 0.9 -1 2 0 1.5 -0.7 2 -2.5 2 -2 0 -2.5 0.5 -2.5 2.4 0 2.9 -3.2 4.3 -12.6 5.2 -5.5 0.6 -6.4 0.4 -6.4 -0.9z"/>
  <path d="M726.8 538.3 c-1.1 -0.3 -1.8 -1.4 -1.8 -2.8 0 -2.3 0 -2.3 4.8 -0.9 9.8 3 18.9 -0.7 21.3 -8.7 1.8 -5.8 4.3 -5.3 3.6 0.7 -0.2 2.6 -0.9 4.9 -1.4 5.3 -0.5 0.3 -1.2 1.4 -1.6 2.4 -1.1 3 -6.9 4.7 -15.4 4.6 -4.3 -0.1 -8.6 -0.3 -9.5 -0.6z"/>
  <path d="M774.8 537.4 c-2.7 -0.8 -4.8 -1.9 -4.8 -2.4 0 -0.6 -0.7 -1 -1.6 -1 -0.9 0 -1.8 -0.9 -2.1 -2 -0.3 -1.1 -1.2 -2 -2 -2 -0.8 0 -1.7 -0.9 -2 -2 -0.3 -1.1 -0.9 -2 -1.3 -2 -0.5 0 -1.9 -2.6 -3.1 -5.7 -1.9 -5 -2.3 -7.8 -2.3 -19.3 -0.1 -13 1.2 -21 3.4 -21 0.5 0 1 -1 1.2 -2.2 0.2 -1.7 1.1 -2.4 3.1 -2.6 2.1 -0.3 2.7 -0.9 2.7 -2.7 0 -1.9 1 -3 4 -4.5 2.1 -1.1 5 -2 6.4 -2 1.3 0 2.6 -0.4 2.8 -1 0.2 -0.5 3.1 -1.3 6.6 -1.6 5.3 -0.6 6.2 -0.5 6.2 1 0 0.9 -0.1 1.6 -0.3 1.6 -3.6 0 -13.6 2.9 -18 5.3 -10.8 5.7 -14.7 13.5 -14.7 29.7 0 18.8 7.6 30.5 22 34 3 0.7 5 1.7 5 2.6 0 1.8 -5 1.7 -11.2 -0.2z"/>
  <path d="M793 537.5 c0 -0.8 1.5 -1.7 3.8 -2.1 5 -1 9.8 -3.1 14.9 -6.5 2.3 -1.6 4.4 -2.9 4.7 -2.9 0.3 0 1.2 1.3 2.1 2.9 1.9 3.8 6.9 5.5 14.6 4.9 6.6 -0.5 9.4 -2.4 10.4 -6.9 0.9 -4.2 3.5 -3.8 3.5 0.6 0 1.9 -0.4 3.5 -1 3.5 -0.5 0 -1 0.9 -1 2 0 1.3 -0.7 2 -1.9 2 -1.1 0 -2.1 0.5 -2.3 1.2 -0.3 0.8 -3 1.2 -7.9 1.2 -9.7 0.1 -14.9 -1 -14.9 -3.1 0 -1.3 -0.7 -1.4 -3.7 -0.9 -2.1 0.3 -4.6 0.6 -5.5 0.6 -1 0 -1.8 0.7 -1.8 1.5 0 1.6 -5.8 3.5 -10.7 3.5 -2.2 0 -3.3 -0.5 -3.3 -1.5z"/>
  <path d="M879.8 537.8 c-2.1 -0.6 -3.8 -1.4 -3.8 -1.9 0 -0.5 -0.9 -0.9 -2 -0.9 -1.1 0 -2 -0.7 -2 -1.5 0 -0.9 -0.9 -1.5 -2.1 -1.5 -1.2 0 -2.3 -0.8 -2.6 -2 -0.3 -1.1 -0.9 -2 -1.4 -2 -0.5 0 -0.9 -1.3 -0.9 -3 0 -1.9 -0.5 -3 -1.4 -3 -0.8 0 -1.8 -1.9 -2.5 -4.4 -2.9 -11.6 0.4 -13.3 3.7 -2 1.9 6.2 3.1 8.4 7 12.3 3.9 3.9 6 5.1 11.5 6.6 4.1 1.1 6.7 2.3 6.7 3.1 0 1.6 -4.6 1.7 -10.2 0.2z"/>
  <path d="M669.3 537.3 c-0.7 -0.2 -1.3 -1.7 -1.3 -3.3 l0 -2.8 3.7 1.9 c2.1 1 4.3 1.9 5 1.9 0.7 0 1.3 0.7 1.3 1.5 0 1.1 -1 1.5 -3.7 1.4 -2.1 0 -4.4 -0.3 -5 -0.6z"/>
  <path d="M684 536.5 c0 -0.8 1.4 -1.7 3.5 -2.1 4.9 -0.9 8.5 -5.4 8.5 -10.7 0.1 -2.3 0.2 -17.6 0.3 -34 l0.2 -29.9 3.3 -2.9 c3.8 -3.4 7.2 -3.9 7.2 -0.9 0 1.5 -0.8 2.2 -2.9 2.6 -2.2 0.5 -3 1.3 -3.5 3.6 -0.3 1.7 -0.6 17.3 -0.6 34.7 0 28.1 -0.2 32 -1.8 35.1 -1 2.2 -2.6 3.6 -3.9 3.8 -1.3 0.2 -2.3 0.8 -2.3 1.3 0 0.5 -1.8 0.9 -4 0.9 -2.8 0 -4 -0.4 -4 -1.5z"/>
  <path d="M360.1 531.9 c-0.6 -1.8 -1.1 -4.7 -1.1 -6.5 0 -4.5 2.6 -4.6 3.5 -0.1 0.4 1.7 1.5 4.7 2.6 6.5 l1.8 3.2 -2.8 0 c-2.4 0 -3.1 -0.6 -4 -3.1z"/>
  <path d="M456 527 c0 -2.7 0.4 -4 1.4 -4 0.8 0 1.8 1.8 2.4 4 0.9 3.8 0.9 4 -1.4 4 -2.1 0 -2.4 -0.4 -2.4 -4z"/>
  <path d="M663 526.5 c0 -2.2 0.5 -3.5 1.3 -3.5 0.8 0 1.8 1.6 2.4 3.5 1.1 3.3 1 3.5 -1.3 3.5 -2.1 0 -2.4 -0.5 -2.4 -3.5z"/>
  <path d="M718 526.5 c0 -2.2 0.5 -3.5 1.3 -3.5 0.8 0 1.8 1.6 2.4 3.5 1.1 3.3 1 3.5 -1.3 3.5 -2.1 0 -2.4 -0.5 -2.4 -3.5z"/>
  <path d="M191 523 c0 -1.4 0.7 -2 2.1 -2 3.1 0 9.9 -2.2 9.9 -3.2 0 -0.4 0.6 -0.8 1.3 -0.8 1.7 0 6.7 -11 6.7 -14.9 0 -6.8 -4.6 -13.3 -10.9 -15.3 -2.9 -0.9 -4.1 -1.8 -4.1 -3.2 0 -1.6 0.5 -1.7 3.8 -1.1 5.4 0.9 11.1 5 12.9 9.3 1 2.2 1.6 6.4 1.6 10.2 0 11.5 -5.3 19.3 -14.8 21.9 -6.2 1.7 -8.5 1.4 -8.5 -0.9z"/>
  <path d="M547.6 518.7 c-1 -4.3 -4.6 -7.7 -9.2 -8.8 -5.3 -1.4 -6 -3.9 -1.1 -3.9 5.6 0 7.7 1 7.7 3.6 0 1.9 0.5 2.4 2.4 2.4 2.6 0 3.6 1.6 3.6 6.1 0 3.5 -2.5 4 -3.4 0.6z"/>
  <path d="M456 515.5 c0 -3.7 1.8 -8.5 3.2 -8.5 0.4 0 0.8 -0.7 0.8 -1.6 0 -0.9 0.9 -1.8 2 -2.1 1.1 -0.3 2 -1.4 2 -2.4 0 -1.1 0.5 -1.9 1 -1.9 0.6 0 1 -0.7 1 -1.5 0 -0.9 0.7 -1.8 1.5 -2.1 0.8 -0.4 1.5 -1.3 1.5 -2.1 0 -0.8 0.9 -1.7 2 -2 1.1 -0.3 2 -1.4 2 -2.4 0 -1.1 0.7 -1.9 1.5 -1.9 0.8 0 1.5 -0.9 1.5 -2 0 -1.1 0.7 -2 1.5 -2 0.9 0 1.5 -0.9 1.5 -2.1 0 -1.2 0.8 -2.3 2 -2.6 1.1 -0.3 2 -1.4 2 -2.4 0 -1.1 0.7 -1.9 1.5 -1.9 0.9 0 1.5 -0.9 1.5 -2.1 0 -1.2 0.8 -2.3 2 -2.6 1.1 -0.3 2 -1.4 2 -2.4 0 -1.1 0.7 -1.9 1.5 -1.9 0.8 0 1.5 -0.9 1.5 -2 0 -1.1 0.7 -2.3 1.5 -2.6 0.8 -0.4 1.5 -1.2 1.5 -2 0 -0.7 0.6 -1.7 1.3 -2.1 0.8 -0.4 1.6 -1.6 2 -2.5 0.3 -0.9 1.6 -1.8 2.9 -2.1 1.3 -0.2 -5.9 -0.5 -16 -0.6 -20.4 -0.1 -24 -0.9 -26.6 -6 -2 -3.7 -2.1 -9.1 -0.3 -9.1 0.7 0 1.9 1.6 2.6 3.5 0.6 1.9 2.4 4.4 3.8 5.5 2.4 1.9 4 2 22.4 2 15.6 0 19.9 0.3 19.9 1.3 0 0.7 -4.2 6.7 -9.2 13.4 -5.1 6.7 -15.7 20.5 -23.5 30.8 -8.3 10.9 -14.8 20.4 -15.5 22.6 -1.4 4.9 -3.8 5.2 -3.8 0.4z"/>
  <path d="M659 515.8 c0 -0.6 -1 -3.2 -2.1 -5.6 -3.2 -6.5 -6.5 -7.6 -16.6 -5.7 -9.9 1.9 -16.6 1.9 -22.9 0 -11.9 -3.5 -20.9 -13.5 -23.8 -26.4 -2.1 -9.2 -2.1 -11.1 0.3 -11.1 1.5 0 2 1 2.5 5.2 0.8 5.9 4.3 14.9 6.3 16.1 0.7 0.4 1.3 1.2 1.3 1.7 0 1.6 4.5 5.4 10.1 8.5 4.7 2.6 6.4 3 13.4 2.9 4.4 0 11.4 -0.4 15.6 -0.8 8.6 -1 12.9 -0.3 12.9 1.9 0 0.8 0.7 1.5 1.6 1.5 1.8 0 4.4 5.8 4.4 10 0 2 -0.5 3 -1.5 3 -0.8 0 -1.5 -0.5 -1.5 -1.2z"/>
  <path d="M299 510.7 c-5.6 -1.9 -7 -3.1 -8.5 -7.3 -2.1 -5.7 -1.9 -9.4 0.4 -9.4 1.4 0 2 1 2.5 4.6 0.7 5.3 1.8 6.7 7 8.4 4 1.3 12.6 0.6 12.6 -1.1 0 -0.5 0.6 -0.9 1.3 -0.9 0.8 0 2 -1.8 2.7 -4 0.9 -2.9 1.9 -4 3.3 -4 1.7 0 1.9 0.5 1.3 3.2 -1 4.8 -3.3 7.8 -7.9 9.9 -4.7 2.1 -9.5 2.3 -14.7 0.6z"/>
  <path d="M794.3 509.3 c-3.2 -0.6 -6.3 -5 -6.3 -9 0 -7.7 4.2 -12.7 11.9 -13.9 3.7 -0.6 4.1 -0.4 4.1 1.3 0 1.6 -0.9 2.2 -3.7 2.7 -5.1 0.8 -8.8 6 -7.9 11 0.5 2.8 1.2 3.6 3.5 4.1 3.4 0.7 10.1 -0.3 10.1 -1.6 0 -0.5 0.9 -0.9 2 -0.9 1.5 0 2 -0.7 2 -2.5 0 -1.8 0.5 -2.5 2 -2.5 3 0 2.5 3.6 -0.8 7 -4 4 -10.3 5.6 -16.9 4.3z"/>
  <path d="M859 501 c0 -4.4 0.4 -6 1.4 -6 1.6 0 2.6 3 2.6 8.3 0 3 -0.4 3.7 -2 3.7 -1.8 0 -2 -0.7 -2 -6z"/>
  <path d="M142 482 c0 -17.3 0.2 -21 1.4 -21 2.2 0 2.7 4.3 2.5 21.8 -0.2 18.1 -0.5 20.2 -2.5 20.2 -1.2 0 -1.4 -3.8 -1.4 -21z"/>
  <path d="M254 464.5 c0 -41.6 0.2 -42.8 6.2 -46.5 3.9 -2.4 11.8 -2.8 11.8 -0.6 0 0.8 -1.9 1.8 -4.4 2.5 -2.8 0.7 -5.3 2.2 -7 4.2 l-2.6 3.1 0 37.4 c0 36.7 0 37.4 -2 37.4 -2 0 -2 -0.7 -2 -37.5z"/>
  <path d="M319 482.5 c0 -8.3 0.3 -10.5 1.4 -10.5 1.8 0 2.6 3.1 2.6 10.5 0 7.4 -0.8 10.5 -2.6 10.5 -1.1 0 -1.4 -2.2 -1.4 -10.5z"/>
  <path d="M810 488 c0 -1.3 0.7 -2 2 -2 1.3 0 2 0.7 2 2 0 1.3 -0.7 2 -2 2 -1.3 0 -2 -0.7 -2 -2z"/>
  <path d="M662 439 c0 -25.7 0.2 -31 1.4 -31 0.7 0 1.6 1 2 2.3 0.3 1.2 0.6 15.1 0.6 31 0 28 0 28.7 -2 28.7 -2 0 -2 -0.7 -2 -31z"/>
  <path d="M717 466.4 c0 -3.2 -2.9 -8.4 -4.7 -8.4 -0.7 0 -1.3 -0.9 -1.3 -2 0 -4.7 7.5 -0.6 9 4.9 1.6 5.7 1.3 8.1 -1 8.1 -1.5 0 -2 -0.7 -2 -2.6z"/>
  <path d="M810 460 c0 -2.3 -0.4 -3 -2 -3 -1.1 0 -2 -0.4 -2 -1 0 -0.5 -1.1 -1 -2.5 -1 -1.8 0 -2.5 -0.5 -2.5 -2 0 -2.4 1.8 -2.5 6.4 -0.6 3.9 1.6 6.6 5.1 6.6 8.3 0 1.6 -0.6 2.3 -2 2.3 -1.6 0 -2 -0.7 -2 -3z"/>
  <path d="M592 455.3 c0.1 -8 5.4 -19.6 11.7 -25.8 3.5 -3.4 12.4 -7.5 16.3 -7.5 3.7 0 2.3 3.5 -1.7 4.7 -8.5 2.6 -11.3 3.9 -11.3 5.1 0 0.8 -0.9 1.6 -2 1.9 -1.1 0.3 -2 1.3 -2 2.3 0 1 -0.3 2 -0.7 2.2 -1.5 0.6 -5.4 10 -6 14.4 -0.4 3.4 -1 4.4 -2.4 4.4 -1.2 0 -1.9 -0.7 -1.9 -1.7z"/>
  <path d="M191 453.1 c0 -1.9 1 -2.2 9.8 -3.8 2.6 -0.4 3.2 -1 3.2 -3.2 0.1 -1.4 0.7 -3.7 1.5 -5.1 0.8 -1.4 1.4 -3.5 1.5 -4.7 0 -1.6 0.6 -2.3 2 -2.3 3.8 0 1.6 9.3 -3.7 15.1 -4.8 5.3 -14.3 8 -14.3 4z"/>
  <path d="M289 441.5 c0 -17.6 -1.2 -20.2 -10.7 -22 -4.8 -1 -4.3 -3.5 0.6 -3.5 5 0 9.1 1.5 9.1 3.4 0 0.7 0.8 1.6 1.8 1.9 2.6 0.6 3.2 4.6 3.2 20.3 0 12.7 -0.1 13.4 -2 13.4 -1.9 0 -2 -0.7 -2 -13.5z"/>
  <path d="M207 429 c0 -2.8 -0.4 -4 -1.4 -4 -0.8 0 -2.1 -0.8 -2.8 -1.8 -2 -2.8 -7.2 -4.2 -15.4 -4.2 -5.9 0 -7.4 -0.3 -7.4 -1.5 0 -2.1 4.1 -2.8 12.4 -2 9.5 0.8 13.5 3 16.4 8.5 2.8 5.6 2.9 9 0.2 9 -1.7 0 -2 -0.7 -2 -4z"/>
  <path d="M540 374.1 c0 -4.3 1.8 -10.1 3.1 -10.1 0.5 0 0.9 -0.8 0.9 -1.7 0 -2.3 8 -21.7 9.1 -22.1 1.2 -0.5 1.1 -4.2 -0.1 -4.2 -0.5 0 -1 -1.6 -1 -3.5 0 -1.9 0.3 -3.5 0.8 -3.5 0.8 0 5.2 6.5 5.2 7.8 0 0.8 -7.9 20.5 -11.9 29.5 -2.8 6.4 -2.7 8 0.2 7.1 1.2 -0.3 10.7 -4.7 21 -9.6 l18.9 -8.9 7.4 1.7 c5.3 1.1 7.4 2 7.4 3.1 0 1.3 -0.9 1.5 -5.2 0.9 -10.6 -1.3 -15.8 -1.1 -15.8 0.7 0 1.8 -16.4 9.7 -20 9.7 -1.9 0 -3 0.5 -3 1.4 0 1.4 -2.1 2.6 -4.7 2.6 -0.8 0 -2.1 0.7 -2.9 1.5 -0.9 0.8 -3.3 1.5 -5.5 1.5 -3.9 0 -3.9 0 -3.9 -3.9z"/>
 </g>
 <g fill="#4a1a8c">
  <path d="M690.5 768.5 c-15.2 -4.1 -25.5 -10.8 -41.1 -26.6 -19.2 -19.5 -26.8 -24.5 -41.1 -27.4 -2 -0.4 -3.3 -1.3 -3.3 -2.2 0 -1.3 0.9 -1.5 5.8 -0.9 3.1 0.4 5.9 1.1 6 1.6 0.2 0.6 1.6 1 3.1 1 1.4 0 5.9 1.6 9.9 3.5 7 3.3 13.3 8.3 28.2 22.1 9.1 8.4 17.8 14.3 29.5 19.9 10.4 5 11.5 5.8 11.5 8.8 0 2 -1.6 2.1 -8.5 0.2z"/>
  <path d="M467.3 767.4 c-4.4 -1.1 -6.3 -2 -6.3 -3.1 0 -1.4 1 -1.5 7.8 -0.8 11.1 1.2 12.9 1.1 20.7 -1.4 11.9 -3.8 25.6 -13.1 38.5 -26.1 4.1 -4.1 7.4 -7.7 7.3 -8 -0.1 -0.3 3.2 -3.9 7.4 -8 l7.5 -7.5 -0.4 4.3 c-0.3 3.5 -0.1 4.1 1.2 3.6 1.3 -0.5 6.3 -2.4 25.5 -9.5 3.4 -1.2 7.8 -1.8 13.7 -1.9 9.8 0 11.8 0.5 11.8 3 0 1.4 -1.2 1.8 -7.2 2.3 -14.3 1 -21.2 5.2 -42.3 25.7 -16.6 16.1 -27.4 22.7 -43.2 26.6 -9.7 2.4 -33.8 2.8 -42 0.8z"/>
  <path d="M709 753.5 c0 -2.4 0.1 -2.5 3.2 -1.2 4.6 1.9 4.8 3.7 0.4 3.7 -3.2 0 -3.6 -0.3 -3.6 -2.5z"/>
  <path d="M425.9 746.1 c-12.5 -11.3 -21.2 -23.5 -27.4 -38.5 -5.2 -12.8 -7 -22.8 -6.9 -39.6 0.1 -12.7 0.5 -15.6 2.8 -23.3 3.1 -10.5 9.6 -23.7 14.2 -29.1 1.9 -2.2 3.4 -4.8 3.4 -5.8 0 -1.7 -4.7 -1.8 -123.1 -1.8 -119.4 0 -123.4 -0.1 -133.2 -2 -12.4 -2.5 -31 -11.1 -31.5 -14.6 -0.4 -3.1 2.3 -4.7 8.1 -4.7 2.9 0 11.4 0.1 19 0.2 13.7 0.1 13.8 0.1 22.5 -3.5 17 -7 25.7 -12.2 38 -22.9 7.1 -6.2 7.8 -7 5.6 -7.3 -4 -0.5 -2.7 -2.6 2.8 -4.6 6.8 -2.4 11.7 -5.6 16.7 -10.8 l4.1 -4.2 0 3.7 c0 2.6 -0.4 3.7 -1.5 3.7 -0.8 0 -1.5 0.5 -1.5 1 0 0.6 0.9 1 1.9 1 2.1 0 3.1 1.9 3.1 6 0 3.5 4.4 7.4 14.3 12.6 l6.9 3.6 11.6 -0.4 c8.7 -0.3 13.2 -1 17.7 -2.6 8.1 -3 21.2 -12 30.9 -21.5 4.4 -4.2 9.8 -8.8 12 -10.1 8.4 -5 14.6 -14.3 16.6 -24.7 0.6 -2.8 1 -12.1 1 -20.5 l0 -15.4 3.3 0 c1.8 0 4.1 0.6 5.2 1.4 1.1 0.7 3.7 1.6 5.8 1.9 2.1 0.3 5.1 1.7 6.8 3.1 1.7 1.4 3.5 2.6 4 2.6 0.5 0 0.9 1.3 0.9 2.9 0 1.8 0.6 3.1 1.5 3.3 1 0.2 -1.6 4.2 -8 12.6 -5.1 6.8 -10 14.3 -10.9 16.8 -0.8 2.5 -3.1 6.3 -5 8.6 -4.9 5.7 -9.9 18 -10 24.3 0 6.4 2.6 11.8 6.8 14 3 1.6 5.5 1.7 25.2 1.2 20.9 -0.5 22.3 -0.6 30.6 -3.5 8.5 -2.9 17.1 -7.2 18.3 -9.2 0.3 -0.6 3.3 -1 6.6 -1 5.8 0 6.2 0.1 11.3 5 5.8 5.5 11.1 8.2 14.4 7.3 1.2 -0.3 3.8 -0.2 5.8 0.2 l3.7 0.6 -0.7 5.7 c-0.3 3.1 -1.1 7.8 -1.8 10.5 -1.7 6.7 -0.3 7.8 5.6 4.3 2.5 -1.5 5 -3.5 5.6 -4.6 2.1 -3.8 8 -2.6 22.6 4.5 7.3 3.6 13.9 7.1 14.6 7.8 0.7 0.7 2.5 1.8 4.1 2.4 2.2 1 2.7 1.9 2.7 4.7 0 5.7 -1.7 6 -10.1 2.2 -9.4 -4.3 -15.7 -5.6 -27.1 -5.6 -11 0 -18.8 1.9 -29.4 7.1 -19.3 9.4 -34.5 28.1 -39.9 48.9 -0.9 3.5 -3.4 9.7 -5.5 13.9 -5.8 11.6 -10 24.4 -10 30.4 0.1 2.9 0.9 7.7 2 10.7 1.1 3 1.9 6.1 2 6.8 0 0.7 1.3 2.5 3 3.8 1.6 1.4 3.7 4 4.5 5.7 0.8 1.8 2.7 4.5 4.3 6.1 12.7 13.7 17.2 19.3 17.2 21.9 0 1.5 -0.3 2.7 -0.8 2.7 -0.4 0 -3.7 -2.7 -7.3 -5.9z"/>
  <path d="M789.5 710 c-1.8 -5.9 -1.8 -6.1 0.3 -14.7 4.2 -16.7 3.9 -31.1 -0.9 -46.3 -6.5 -20.5 -22.9 -39.9 -41.4 -48.7 -11.9 -5.6 -22.1 -7.6 -35.5 -7.1 -21.2 1 -32.5 6.5 -55 26.8 -14.9 13.4 -26.3 22.1 -34.3 26.2 -12.1 6.1 -29 8.4 -41.9 5.7 -6.7 -1.4 -16.3 -5.9 -20.8 -9.8 -3.2 -2.8 -3.3 -3 -1.2 -3.1 1.2 0 2.2 -0.6 2.2 -1.4 0 -0.9 1.9 -1.5 6.3 -1.9 9.4 -0.8 19.6 -5.6 32.1 -15 6 -4.5 13.8 -10.3 17.3 -12.8 3.5 -2.5 11.7 -10 18.2 -16.6 13.3 -13.4 17.1 -15.7 27.6 -16.6 8.1 -0.7 16.9 -2.8 23.9 -5.8 3.2 -1.4 8.1 -2.3 14.2 -2.6 l9.4 -0.6 0 3.6 c0 2 -0.6 4 -1.2 4.4 -0.7 0.4 -1.9 1.6 -2.7 2.6 -1.2 1.5 -1.1 1.7 1.3 1.7 1.8 0 4.1 -1.4 6.8 -4 2.9 -2.8 5.1 -4 7 -4 3.6 0 7.8 -4 7.8 -7.5 0 -3.3 -2.4 -8.1 -4.5 -8.9 -0.9 -0.3 -3.2 -0.6 -5.1 -0.6 -2.8 0 -3.4 -0.4 -3.4 -2 0 -1.9 0.6 -2.1 4.8 -1.9 4 0.2 5.8 -0.4 10.8 -3.4 4.3 -2.7 7.1 -3.7 10.1 -3.7 4.2 0 5.6 1.1 10.3 7.9 0.8 1.2 3.1 3.1 5 4.3 3 1.7 4.6 2 11 1.5 8.2 -0.5 11.9 -1.9 19.4 -7.2 7.7 -5.5 15.9 -4.7 19 2 1 2 2.2 3.5 2.6 3.3 0.5 -0.2 5 -3.6 10 -7.7 9.2 -7.6 9.8 -9.1 3.8 -9.1 -2.3 0 -2.8 -0.4 -2.8 -2.5 0 -2.2 0.2 -2.4 2.7 -1.4 3.8 1.4 12.6 1.4 16 0 4.8 -2 5.3 -4.4 5.3 -25.6 0 -10.6 0.3 -20 0.6 -20.9 0.4 -1 1.8 -1.6 3.9 -1.6 l3.3 0 1.2 11.3 c0.7 6.4 1 14.2 0.6 18.2 -0.4 3.9 -1 9.5 -1.3 12.5 -0.5 5.5 1.2 21.5 2.8 25.7 1.1 2.9 4.9 6.3 7 6.3 3.2 0 17.1 -7.8 34.3 -19.2 3.2 -2.1 8.1 -4.3 10.8 -4.9 2.7 -0.6 6.3 -2.2 8.1 -3.7 1.8 -1.4 0.9 -0.2 -2 2.9 -2.8 3 -8.1 9.8 -11.8 15.3 -6.1 9 -6.6 10.2 -6 13.6 0.4 2.3 0.2 4.1 -0.4 4.5 -0.6 0.3 -1.1 1.7 -1.1 3 0 1.8 0.9 2.6 4.4 3.8 2.5 0.8 4.7 1.3 5 1 0.3 -0.4 1.4 0.4 2.5 1.5 1 1.2 2.6 2.2 3.6 2.2 0.9 0 2.8 0.9 4.2 1.9 1.9 1.6 3 1.8 4.9 1.1 1.7 -0.7 2.3 -0.7 1.9 0 -0.3 0.6 0 1 0.8 1 0.7 0 4.2 -2.6 7.8 -5.7 6.2 -5.6 6.3 -5.7 3 -1.5 -6.9 8.9 -21.2 18.6 -36.2 24.6 -15.5 6.3 -40.6 9 -72.5 8 -14.8 -0.5 -20.6 -0.4 -22.3 0.5 -2 1.1 -2.7 0.8 -6.8 -2.6 -6.6 -5.6 -12.4 -9.6 -12.9 -9 -0.3 0.3 1.6 2 4.2 3.8 10.8 7.4 20.5 19.9 23.5 30.2 1 3.7 0.1 3.5 -1.2 -0.3 -0.6 -1.6 -1.5 -3 -2.1 -3 -0.5 0 -0.6 -0.4 -0.3 -1 0.9 -1.4 -1.6 -1.2 -4.7 0.4 -1.5 0.8 -2.9 1.2 -3.2 0.9 -0.3 -0.3 -3.1 -0.7 -6.2 -0.9 -4.6 -0.4 -6.1 -0.9 -7.9 -2.9 -1.1 -1.4 -2.4 -2.2 -2.8 -1.9 -1.2 1.2 -0.8 2.2 1.2 2.9 1.3 0.4 1.8 1.3 1.6 2.5 -0.2 1.1 0.7 3.5 2.1 5.5 1.3 2 2.4 4.8 2.4 6.4 0 1.5 0.8 5.4 1.9 8.7 1.9 6.1 3.7 14.3 4.5 20.4 1.4 10.2 2.8 15 4.6 15 2 0 3.4 2.6 2 3.5 -0.6 0.4 -1.6 0.3 -2.2 -0.1 -0.7 -0.4 -0.4 0.2 0.7 1.3 2.5 2.5 4.5 1.9 3.9 -1.3 -0.3 -1.7 0 -2.2 1 -1.8 0.7 0.3 1.6 -0.2 1.9 -1 0.4 -0.9 1.1 -1.6 1.6 -1.6 2.2 0 -7.5 20.3 -13.9 29.2 l-2.7 3.7 -1.8 -5.9z"/>
  <path d="M551.5 711 c0.3 -0.5 1.9 -1.9 3.5 -3 l3 -2.1 0 3 c0 2.9 -0.3 3.1 -3.6 3.1 -2 0 -3.3 -0.4 -2.9 -1z"/>
  <path d="M538.8 620 l-2.8 -3.5 2.6 -0.3 c3.3 -0.4 3.6 -0.1 3.2 3.9 l-0.3 3.4 -2.7 -3.5z"/>
  <path d="M111.2 581.6 c-7.2 -7.8 -13.7 -18.3 -16.2 -26.4 -3.9 -12.6 -4.3 -22.8 -3.8 -110.5 0.5 -82.8 0.5 -83.8 2.5 -85.7 1.1 -1 2.7 -2 3.4 -2.1 2 -0.3 12.7 3 13.5 4.2 0.6 1.1 7.6 4.1 8.5 3.7 0.3 -0.2 1.3 0.4 2.2 1.4 0.9 0.9 5.8 2.6 10.9 3.7 8.8 2.1 12.2 3.6 11.4 5 -0.3 0.4 2 2 5 3.6 3.8 2.1 5.4 3.5 5.4 5 0 2 0.5 2 27.3 2 26.1 0 27.5 0.1 34.7 2.5 4.1 1.3 7.8 2.3 8.3 2.2 0.4 -0.1 0.7 0.2 0.7 0.6 0 0.5 0.6 0.9 1.3 0.9 2.1 0 10.8 5.5 11.5 7.2 0.3 0.9 1.9 3 3.4 4.6 1.5 1.7 2.8 3.5 2.8 4 0 0.6 0.5 0.3 1 -0.5 0.8 -1.2 1 -1.1 1 0.8 0 1.2 0.5 2.2 1 2.2 0.6 0 1 -1.4 1 -3 0 -1.7 0.3 -2.9 0.8 -2.8 0.4 0.1 2.1 -0.6 3.9 -1.5 2.1 -1.1 4.8 -1.6 8.2 -1.4 2.8 0.2 5.1 0.1 5.1 -0.3 0 -0.4 1.4 -0.5 3 -0.2 1.6 0.2 3 0.8 3 1.2 0 0.7 3.8 2.1 6.2 2.4 0.3 0.1 1 0.4 1.4 0.9 0.4 0.4 1.5 0.7 2.5 0.7 0.9 0 1.9 0.5 2.1 1.1 0.2 0.7 1.3 0.7 3.3 -0.1 7.5 -2.9 20.4 -3.1 26.2 -0.4 2.1 1 4 2.1 4.3 2.4 0.7 1 10.4 4.5 11.4 4.2 0.4 -0.2 2.9 0.4 5.5 1.2 3.8 1.2 9.9 2.4 13.3 2.6 0.4 0 2.4 1.5 4.3 3.4 3 3 7.5 4.5 7.5 2.6 0 -0.4 0.6 -0.7 1.3 -0.8 1.4 -0.1 5.2 -1 5.2 -1.2 0 -0.1 0.8 -0.3 1.7 -0.5 0.9 -0.2 2.6 -1 3.8 -1.8 1.7 -1.2 7.2 -1.4 34.8 -1 18 0.2 34.5 0.9 36.7 1.5 2.6 0.6 5.5 2.6 8.3 5.4 4.4 4.7 5.3 4.8 8.5 0.7 4.4 -5.5 7.3 -6.5 21.5 -8 7.4 -0.7 13.6 -1.4 13.8 -1.5 0.1 -0.2 0.4 -1.6 0.7 -3.3 0.8 -4.6 2.8 -9.7 4.9 -12.4 1 -1.3 1.8 -2.9 1.8 -3.5 0 -0.6 1.6 -4.5 3.6 -8.6 7.8 -16.1 11.3 -28.9 11.4 -41.5 0 -5.5 2.7 -17 5.9 -25.5 2.7 -7.3 12.1 -22.3 17.5 -28 2.3 -2.5 5.7 -6.2 7.4 -8.3 3.6 -4.3 3.7 -4.2 1.8 0.4 -0.8 1.9 -1.9 6 -2.5 9.1 -0.6 3.2 -1.9 6.6 -3 7.7 -2 2 -5 10.8 -7.2 20.9 -0.9 4.4 -0.8 7.7 0.6 17.9 2.2 15.5 1.6 26.9 -1.9 37.1 -1.4 3.9 -2.3 7.2 -2 7.2 0.8 0 9.8 -4.8 12.9 -6.9 2.9 -2 2.9 -2.1 0.7 -2.1 -3.2 0 -2.3 -2.1 1.6 -3.7 2.8 -1.1 3.2 -1.1 3.2 0.2 0 1.7 1.8 1.9 4 0.5 1.3 -0.8 1.2 -1 -0.3 -1 -2.8 0 -1.5 -2.2 2.1 -3.7 2.9 -1.2 3.2 -1.2 3.2 0.6 0 1.8 0.9 2 8.8 2.3 4.8 0.3 11.7 1.2 15.3 2.2 l6.5 1.8 8 -4 c4.3 -2.3 9.7 -5.2 11.9 -6.6 3.9 -2.5 3.9 -2.5 1.3 -2.6 -4.3 0 -3.5 -2.8 1 -3.5 13.1 -2 24.6 -6.1 32.2 -11.5 5.5 -3.9 3.1 -1.2 -3.7 4.1 -3.7 2.9 -11.9 10.3 -18.3 16.4 -6.4 6.2 -14.5 12.9 -18.1 15 -12.3 7.2 -16 9.8 -15.6 11.4 0.2 1.1 1.2 1.5 3.2 1.4 2.5 -0.2 1.8 0.4 -3.7 3.3 -13.4 7.1 -24.5 20 -28.8 33.1 -2.8 8.4 -7 13.3 -11.6 13.3 l-3.2 0 1.4 -4.7 c2 -6.5 1 -11.7 -3.1 -16.2 l-3.3 -3.6 -21.4 -0.8 c-30.1 -1.1 -49.4 -0.6 -53.5 1.6 -4.8 2.6 -6.3 5.4 -6.3 11.9 l0 5.8 -4 0 c-3.9 0 -4 -0.1 -4 -3.5 0 -4.6 -2.1 -9.4 -5.5 -12.5 l-2.7 -2.5 -30.1 -0.7 c-34.5 -0.9 -41.5 -0.5 -45.2 2.4 -3.3 2.5 -5.5 6.9 -5.5 10.7 0 4.2 -4.8 11.1 -7.7 11.1 -2.2 0 -2.3 -0.3 -2.3 -7.7 0 -12.5 -4.5 -17.3 -16 -17.3 -9.9 0 -16 5 -16 12.9 0 3.3 -1 5.6 -4.6 10.9 -10.4 15.2 -14 28.8 -12.3 46.2 0.5 5.2 0.6 12.2 0.1 15.5 l-0.7 6 -3.7 -0.1 c-4.5 -0.1 -8.5 -2.6 -10.1 -6.2 -0.9 -2 -1.2 -13.1 -1.2 -40.4 l0 -37.8 -3.3 -3.2 c-3.1 -3.1 -3.7 -3.3 -11.5 -3.6 -6.9 -0.3 -8.7 0 -11.5 1.8 -3.7 2.3 -6.2 7.2 -6.2 12.1 0 2.1 -1 4.3 -3.2 6.8 -1.8 2.1 -4.6 5.4 -6.3 7.4 -1.8 2.2 -3.9 3.7 -5.2 3.7 l-2.1 0 1.9 -5.5 c2.4 -6.9 2.6 -22.7 0.3 -30.6 -3.4 -12 -13.4 -21.5 -26.5 -25.5 -5.6 -1.7 -9.6 -1.9 -32.4 -1.9 -28.6 0 -31.6 0.5 -36 5.6 -1.9 2.4 -2.5 4.2 -2.5 7.9 0 4.3 -0.7 5.9 -5.6 13.2 -11.6 17.3 -14 23.9 -15.5 42.8 -0.5 7.4 -1.7 17.8 -2.5 23 -0.8 5.8 -1.7 21.6 -2 40.5 -0.9 41.9 -0.7 49.5 1.4 51.9 1.2 1.3 1.7 3.7 1.7 8.5 0 6.4 -0.1 6.6 -2.6 6.9 -2.1 0.2 -3.8 -1 -8.7 -6.2z m449.8 -163.5 c0 -0.6 0.7 -0.8 1.5 -0.5 0.8 0.4 1.5 0.2 1.5 -0.3 0 -0.5 -0.6 -1 -1.2 -1.1 -0.7 -0.1 -3.8 -0.8 -6.8 -1.7 -6.7 -1.9 -17.6 -1.1 -17.4 1.3 0.2 2.7 0.5 3 2.3 2.5 1.1 -0.3 2.1 0.2 2.4 1.1 0.4 0.9 1.2 1.3 2 1 0.8 -0.3 2 0.3 2.8 1.2 1.4 1.7 1.5 2 1.7 6.2 0.2 2.1 0.7 1.8 5.7 -3.2 3 -3 5.5 -6 5.5 -6.5z"/>
  <path d="M153 554.9 c0 -1.9 0.4 -2 4.3 -1.5 2.3 0.3 4.5 0.5 5 0.5 0.4 0.1 0.7 0.8 0.7 1.6 0 1.1 -1.2 1.5 -5 1.5 -4.4 0 -5 -0.2 -5 -2.1z"/>
  <path d="M183 555.6 c0 -1.5 3 -2.6 7.3 -2.6 2 0 2.7 0.5 2.7 2 0 1.7 -0.7 2 -5 2 -3.6 0 -5 -0.4 -5 -1.4z"/>
  <path d="M529 550.4 c0 -2 0.9 -5.2 2.1 -7 1.1 -1.9 1.6 -3.4 1 -3.4 -0.6 0 -1.1 -0.7 -1.1 -1.5 0 -0.9 1.4 -1.6 3.8 -2 8 -1.3 9.1 -1.7 10.8 -3.6 1.2 -1.4 1.9 -4.1 2.2 -8.5 0.4 -5.6 0.7 -6.4 2.4 -6.4 1.9 0 2 0.5 1.6 6.5 -0.2 3.6 -0.1 6.5 0.2 6.5 1.2 0 4.6 3.4 5.3 5.3 0.3 0.9 1.5 1.7 2.6 1.7 1.1 0 2.5 0.9 3.1 1.9 0.5 1.1 1.9 2.3 3.1 2.6 3.7 1.2 5.9 3.8 5.9 7.1 0 2.4 -0.5 3.3 -2.2 3.8 -1.3 0.3 -11 0.6 -21.5 0.6 l-19.3 0 0 -3.6z"/>
  <path d="M636 550.5 c0 -2.6 0.9 -4.5 3.6 -7.5 l3.6 -4 -2.6 0 c-3.2 0 -3.5 -2.5 -0.3 -3.4 3.7 -1 4.7 -0.7 4.7 1.4 0 1.6 0.7 2 3.4 2 3.3 0 3.3 0.1 4 5.3 1.2 10.4 1.7 9.7 -7.9 9.7 l-8.5 0 0 -3.5z"/>
  <path d="M675 551.2 c0 -1.5 1.3 -4.9 3 -7.5 l3 -4.7 -3 0 c-2.3 0 -3 -0.4 -3 -2 0 -1.8 0.7 -2 6.5 -2 4 0 7.8 -0.6 9.6 -1.6 5.4 -2.7 5.9 -5.7 5.9 -32.4 l0 -24 2.3 0 c1.7 0 2.6 1 3.9 4.3 4.2 10.8 5.8 26.3 5.5 52.2 l-0.2 20 -16.7 0.3 -16.8 0.2 0 -2.8z"/>
  <path d="M142.6 549.8 c-1.1 -4.2 -0.7 -7.8 0.9 -7.8 0.8 0 1.5 0.6 1.5 1.3 0 0.7 0.9 2.9 1.9 5 l1.9 3.7 -2.8 0 c-2 0 -2.9 -0.6 -3.4 -2.2z"/>
  <path d="M299 540 c0 -1.8 0.7 -2 6 -2 5.3 0 6 0.2 6 2 0 1.8 -0.7 2 -6 2 -5.3 0 -6 -0.2 -6 -2z"/>
  <path d="M366.8 539.3 c-1.2 -0.3 -1.8 -1.4 -1.8 -3.3 l0 -2.8 3.7 1.9 c2.1 1 4.3 1.9 5 1.9 0.7 0 1.3 0.7 1.3 1.5 0 1.5 -4.1 1.9 -8.2 0.8z"/>
  <path d="M436 538.7 c0 -1.2 1.3 -1.9 4.3 -2.3 2.9 -0.5 5.3 -1.8 7.6 -4.1 1.8 -1.8 3.5 -3.3 3.7 -3.3 0.2 0 0.4 1.6 0.4 3.5 0 2.5 -0.5 3.8 -1.7 4.2 -1 0.4 -2.1 1 -2.4 1.5 -0.3 0.5 -3.1 1.2 -6.2 1.5 -4.8 0.5 -5.7 0.3 -5.7 -1z"/>
  <path d="M620 538.1 c0 -1.6 0.9 -1.8 8 -1.8 7.1 0 8 0.2 8 1.8 0 1.7 -0.9 1.9 -8 1.9 -7.1 0 -8 -0.2 -8 -1.9z"/>
  <path d="M279 538 c0 -0.5 -1.1 -1 -2.5 -1 -2 0 -2.5 -0.5 -2.5 -2.6 0 -1.4 0.3 -2.4 0.8 -2.2 0.4 0.2 3.1 1.2 6 2.3 6 2.3 6.9 4.5 1.7 4.5 -1.9 0 -3.5 -0.4 -3.5 -1z"/>
  <path d="M610 537 c0 -2.1 1 -2.4 4.8 -1.4 3.6 1 2.7 3.4 -1.3 3.4 -2.8 0 -3.5 -0.4 -3.5 -2z"/>
  <path d="M778 537 c0 -2.1 1 -2.4 4.8 -1.4 3.6 1 2.7 3.4 -1.3 3.4 -2.8 0 -3.5 -0.4 -3.5 -2z"/>
  <path d="M880.3 538.3 c-1.6 -0.3 -2.3 -1.1 -2.3 -2.7 l0 -2.3 5.5 1.5 c8.9 2.5 6.2 5.3 -3.2 3.5z"/>
  <path d="M724 535.5 c0 -2 -0.5 -2.5 -2.4 -2.5 -2.6 0 -3.6 -1.6 -3.6 -6.1 0 -4.2 2.2 -3.5 4.5 1.4 1.3 2.7 3.1 4.7 5.2 5.7 4.4 2 4.2 4 -0.2 4 -3.1 0 -3.5 -0.3 -3.5 -2.5z"/>
  <path d="M602 534.6 c0 -2.3 0.2 -2.4 3.5 -1.3 1.9 0.6 3.5 1.6 3.5 2.4 0 0.8 -1.3 1.3 -3.5 1.3 -3 0 -3.5 -0.3 -3.5 -2.4z"/>
  <path d="M801 536 c0 -0.8 9 -6 10.5 -6 0.3 0 0.5 1.1 0.5 2.3 0 1.6 -0.9 2.8 -2.5 3.5 -3.2 1.5 -8.5 1.6 -8.5 0.2z"/>
  <path d="M457 530.5 c0 -1.9 0.4 -3.5 0.9 -3.5 0.5 0 1.8 1.6 3 3.5 l2 3.5 -2.9 0 c-2.8 0 -3 -0.3 -3 -3.5z"/>
  <path d="M654 530.5 c1.9 -1.9 3.5 -3.5 3.7 -3.5 0.2 0 0.3 1.6 0.3 3.5 0 3.4 -0.1 3.5 -3.7 3.5 l-3.7 0 3.4 -3.5z"/>
  <path d="M749.2 530.5 c2.9 -4.4 3.8 -4.4 3.8 0 0 3.2 -0.2 3.5 -3 3.5 l-3 0 2.2 -3.5z"/>
  <path d="M664 529.5 c0 -1.9 0.4 -3.5 0.9 -3.5 0.5 0 1.8 1.6 3 3.5 l2 3.5 -2.9 0 c-2.8 0 -3 -0.3 -3 -3.5z"/>
  <path d="M869 530 c0 -2.5 -0.4 -3 -2.4 -3 -2.4 0 -3.6 -1.6 -3.6 -5 0 -1 -0.5 -2 -1 -2.2 -0.6 -0.2 -1.3 -2.7 -1.7 -5.6 -0.5 -4.3 -0.3 -5.2 0.9 -5.2 1 0 2 1.7 2.7 4.6 1.7 6.7 4.8 12.2 8.9 16 l3.7 3.4 -3.7 0 c-3.6 0 -3.8 -0.2 -3.8 -3z"/>
  <path d="M587 529 c0 -0.5 -0.7 -1 -1.5 -1 -1 0 -1.5 -1 -1.5 -3 l0 -3 5 3.2 c2.7 1.8 5 3.6 5 4.1 0 0.4 -1.6 0.7 -3.5 0.7 -1.9 0 -3.5 -0.4 -3.5 -1z"/>
  <path d="M451.3 522.7 c0 -6.3 -1.4 -9.2 -5.6 -11.7 -2.9 -1.8 -5.1 -2 -21.4 -2 -10.1 0 -18.3 -0.3 -18.3 -0.7 0.1 -0.5 2.4 -4 5.3 -7.9 27.4 -37.5 34.1 -46.5 34.9 -47 0.4 -0.3 0.8 1.1 0.8 3 0 3.2 -0.3 3.6 -2.5 3.6 -3.2 0 -3.3 1.6 -0.2 2.4 1.3 0.3 4.1 2 6.3 3.7 4.1 3.3 15.1 8.9 21.9 11.1 3.2 1 4.1 1.9 4.6 4.3 0.5 2.3 0.7 2.5 0.8 0.8 0.1 -1.6 0.7 -2.3 2.1 -2.3 1.5 0 2 -0.7 2 -2.5 0 -2.1 0.5 -2.5 3.1 -2.5 l3.1 0 -1.9 2.4 c-1 1.4 -7 9.3 -13.4 17.8 -13.2 17.4 -13.9 18.5 -13.9 22.7 0 2.4 -0.4 3.1 -2 3.1 -1.6 0 -2 0.7 -2 3.5 0 2.7 -0.4 3.5 -1.9 3.5 -1.5 0 -1.8 -0.8 -1.8 -5.3z"/>
  <path d="M261 524.9 c0 -0.6 -0.7 -1.7 -1.5 -2.5 -0.8 -0.9 -1.5 -2.6 -1.5 -4 0 -1.3 -0.4 -2.4 -1 -2.4 -0.5 0 -1 -1.6 -1 -3.5 0 -4.4 2.6 -4.8 3.5 -0.6 0.3 1.6 2.1 5.4 4 8.5 l3.4 5.6 -3 0 c-1.6 0 -2.9 -0.5 -2.9 -1.1z"/>
  <path d="M189 523 c0 -1.7 0.7 -2 4 -2 4.5 0 5.7 2.3 1.8 3.4 -4.2 1.1 -5.8 0.7 -5.8 -1.4z"/>
  <path d="M204.2 518.9 c0.3 -3 0.7 -3.4 3.7 -3.7 3.2 -0.3 3.3 -0.3 1.8 1.8 -0.8 1.2 -2.5 2.9 -3.7 3.7 -2.1 1.5 -2.1 1.4 -1.8 -1.8z"/>
  <path d="M247 519.8 c0 -3 1.3 -5.8 2.6 -5.8 0.9 0 1.4 1.2 1.4 3.5 0 2.8 -0.4 3.5 -2 3.5 -1.1 0 -2 -0.6 -2 -1.2z"/>
  <path d="M756.6 517.5 c-0.3 -1.3 -0.9 -5.2 -1.3 -8.5 -0.5 -5.1 -0.3 -6 1 -6 1.1 0 1.8 1.2 2.2 3.8 0.3 2 1.2 5.8 1.9 8.5 1.4 4.6 1.4 4.7 -0.9 4.7 -1.6 0 -2.5 -0.7 -2.9 -2.5z"/>
  <path d="M544.3 513.2 l-3.1 -3.7 -19.6 -0.3 c-10.8 -0.2 -19.6 -0.6 -19.6 -1 0.1 -0.4 3.8 -5.8 8.3 -11.9 4.5 -6.2 14.1 -19.3 21.2 -29.2 7.2 -9.9 13.3 -18 13.8 -18 0.4 -0.1 0.7 0.8 0.7 1.8 0 1.1 0.5 2.3 1.1 2.7 1.2 0.7 0.8 12.6 -1 36.4 -0.4 5.2 -0.4 9.9 0.1 10.5 0.4 0.5 0.8 2.6 0.8 4.6 0 2.1 0.5 4.1 1 4.4 1.2 0.7 1.4 7.5 0.3 7.4 -0.5 0 -2.2 -1.7 -4 -3.7z"/>
  <path d="M658.3 512.5 c-1.1 -3.3 -1 -3.5 1.3 -3.5 2.1 0 2.4 0.5 2.4 3.5 0 2.2 -0.5 3.5 -1.3 3.5 -0.8 0 -1.8 -1.6 -2.4 -3.5z"/>
  <path d="M210 508.5 c0 -2.8 0.4 -3.5 2 -3.5 2.1 0 2.4 1 1.4 4.8 -1 3.6 -3.4 2.7 -3.4 -1.3z"/>
  <path d="M567 509.5 c0 -0.8 -0.4 -1.5 -1 -1.5 -0.5 0 -1 -1.1 -1 -2.5 0 -1.6 -0.6 -2.5 -1.5 -2.5 -1 0 -1.5 -1.1 -1.5 -3.5 0 -4.4 1.4 -4.5 3.6 -0.2 0.9 1.7 3 5.1 4.6 7.5 l2.9 4.2 -3.1 0 c-2 0 -3 -0.5 -3 -1.5z"/>
  <path d="M315 506 c0 -2 0.5 -3 1.5 -3 1 0 1.5 -1.1 1.5 -3.5 0 -2.8 0.4 -3.5 2 -3.5 1.1 0 2 0.7 2 1.5 0 2.8 -3.3 9.6 -5.1 10.6 -1.7 0.8 -1.9 0.6 -1.9 -2.1z"/>
  <path d="M791.8 507.9 c-2.9 -1.6 -2.1 -2.9 1.7 -2.9 2.8 0 3.5 0.4 3.5 2 0 2.2 -2.4 2.6 -5.2 0.9z"/>
  <path d="M801 507.1 c0 -1.6 0.8 -2.2 3.9 -2.7 3.5 -0.6 4 -1 4.6 -4 0.4 -2.5 1.1 -3.4 2.5 -3.4 2.2 0 2.5 1.6 1.1 5.3 -1.1 2.8 -5 5.5 -9.1 6.4 -2.6 0.5 -3 0.3 -3 -1.6z"/>
  <path d="M859 504.5 c0 -4 2.4 -4.9 3.4 -1.2 1 3.7 0.7 4.7 -1.4 4.7 -1.6 0 -2 -0.7 -2 -3.5z"/>
  <path d="M620 504.6 c-10 -2.1 -18.6 -8.9 -23.4 -18.4 -2.2 -4.3 -4.6 -16.8 -4.6 -24 0 -11.2 3.4 -23.7 5.7 -20.7 1.1 1.4 33.2 0.3 35.8 -1.2 1.1 -0.6 4 -3.2 6.5 -5.7 3.4 -3.6 5.1 -4.6 7.6 -4.6 5.9 0 5.9 -0.1 6.2 39.1 l0.3 35.8 -2.9 -1.1 c-2.2 -0.9 -5.2 -0.7 -12.8 0.5 -11.4 1.9 -11.1 1.9 -18.4 0.3z"/>
  <path d="M248.6 501.3 c-1.9 -10.1 -1.9 -11.3 0.3 -11.3 1.3 0 2.1 0.6 2.1 1.8 0 0.9 0.3 4.1 0.6 7 0.6 4.3 0.4 5.2 -0.9 5.2 -0.9 0 -1.8 -1.2 -2.1 -2.7z"/>
  <path d="M254 500 c0 -4.5 2.3 -5.7 3.4 -1.7 1.1 4.1 0.7 5.7 -1.4 5.7 -1.7 0 -2 -0.7 -2 -4z"/>
  <path d="M788.7 501.8 c-0.8 -3.1 0.2 -6.8 1.9 -6.8 1 0 1.4 1.3 1.4 4.5 0 4.9 -2.3 6.4 -3.3 2.3z"/>
  <path d="M755 494.5 c0 -2.5 -0.4 -3.5 -1.5 -3.5 -1.3 0 -1.5 -1.9 -1.3 -12.7 l0.3 -12.8 5.7 -0.3 c7.7 -0.4 9.8 0.8 9.8 5.7 0 2.6 -0.7 4.4 -2.1 5.7 -2.7 2.4 -6.9 11.1 -6.9 14.4 0 4.1 -1.1 7 -2.6 7 -0.9 0 -1.4 -1.2 -1.4 -3.5z"/>
  <path d="M893.2 477.4 l-0.2 -16 2.9 -2.8 c1.8 -1.7 2.7 -3.4 2.4 -4.5 -0.5 -2.1 2 -3.1 8 -3.1 2.1 0 4.8 -0.5 6 -1.1 1.8 -0.9 1.7 -0.7 -0.5 1.5 -1.5 1.5 -4.6 5.4 -6.9 8.9 -2.3 3.4 -5.6 8 -7.3 10.2 -2.8 3.6 -3.1 4.7 -3.7 13.5 -0.5 8.4 -0.6 7.7 -0.7 -6.6z"/>
  <path d="M793 490 c0 -1.4 3 -2.7 8.3 -3.5 4.3 -0.7 4.7 -0.5 4.7 1.3 0 1.5 -0.9 2.1 -4.6 2.6 -6.4 0.8 -8.4 0.8 -8.4 -0.4z"/>
  <path d="M808 487.9 c0 -1.6 0.5 -2 2.7 -1.7 1.7 0.2 2.9 1 3.1 2.1 0.3 1.3 -0.3 1.7 -2.7 1.7 -2.5 0 -3.1 -0.4 -3.1 -2.1z"/>
  <path d="M662 476 c0 -9.6 0.3 -12 1.4 -12 2 0 2.6 3.2 2.6 14.3 0 9 -0.1 9.7 -2 9.7 -1.9 0 -2 -0.7 -2 -12z"/>
  <path d="M240.5 478.7 c-1.7 -2.3 -5.1 -5.7 -7.7 -7.6 l-4.6 -3.4 4.3 -5.3 c2.4 -2.9 4.7 -6 5.2 -6.8 0.5 -1 1.6 -1.3 3 -1 2.6 0.7 3.7 5.8 3.1 15.3 -0.1 3.3 0 6.1 0.5 6.1 0.4 0 0.7 1.6 0.7 3.5 0 1.9 -0.3 3.5 -0.7 3.4 -0.5 0 -2.2 -1.9 -3.8 -4.2z"/>
  <path d="M554.6 478.4 c-0.9 -6.9 -0.8 -8.4 0.8 -8.4 1.4 0 1.8 1.1 3.2 9.3 0.5 3.2 0.4 3.7 -1.4 3.7 -1.5 0 -2.1 -0.9 -2.6 -4.6z"/>
  <path d="M389 473.8 c0 -3.1 0.3 -3.8 2 -3.8 1.5 0 2 -0.7 2 -2.5 0 -2.1 0.5 -2.5 3.1 -2.5 l3 0 -2 2.8 c-1.1 1.5 -3.3 4.3 -5 6.2 l-3 3.5 -0.1 -3.7z"/>
  <path d="M489 469.6 c0 -2.5 0.4 -3.6 1.5 -3.6 0.8 0 1.5 -0.9 1.5 -2 0 -1.6 0.7 -2 3.1 -2 l3 0 -3.2 4.5 c-5 6.9 -5.9 7.4 -5.9 3.1z"/>
  <path d="M717 466.5 c0 -4 2.4 -4.9 3.4 -1.2 1 3.7 0.7 4.7 -1.4 4.7 -1.6 0 -2 -0.7 -2 -3.5z"/>
  <path d="M775 467.5 c0 -2 0.7 -2.5 5 -3.4 7 -1.5 10 -1.4 10 0.4 0 0.8 -1.5 1.7 -3.7 2.1 -2.1 0.4 -5.5 1.3 -7.5 2 -3.7 1.3 -3.8 1.2 -3.8 -1.1z"/>
  <path d="M843.6 462.3 c-0.2 -1.6 -0.8 -4.9 -1.1 -7.5 -0.6 -4.3 -0.4 -4.8 1.3 -4.8 1.6 0 2 1 2.6 5.3 0.3 2.8 0.6 6.2 0.6 7.5 0 3.2 -2.7 2.8 -3.4 -0.5z"/>
  <path d="M809.5 460 c-0.6 -3.4 -1.1 -4 -3.1 -4 -1.7 0 -2.4 -0.6 -2.4 -2 0 -5.3 8.5 0.3 9.6 6.3 0.5 3.3 0.4 3.7 -1.4 3.7 -1.6 0 -2.2 -0.9 -2.7 -4z"/>
  <path d="M858 457.5 c0 -5.8 0.2 -6.5 2 -6.5 1.8 0 2 0.7 2 6.5 0 5.8 -0.2 6.5 -2 6.5 -1.8 0 -2 -0.7 -2 -6.5z"/>
  <path d="M697 461.4 c0 -1.7 2.4 -4.6 5 -5.9 4 -2.1 6 -1.9 6 0.5 0 1.6 -0.7 2 -3 2 -2.3 0 -3 0.4 -3 2 0 1.5 -0.7 2 -2.5 2 -1.4 0 -2.5 -0.3 -2.5 -0.6z"/>
  <path d="M752 455.3 c0 -3.1 0.3 -5.3 0.7 -4.9 0.9 0.9 9.3 -7.4 9.4 -9.4 0 -0.8 0.6 0.5 1.3 3 0.6 2.5 0.9 4.7 0.6 5 -0.3 0.3 -1.2 2.4 -1.8 4.7 -1.4 4.6 -4.3 7.3 -7.9 7.3 -2.1 0 -2.3 -0.4 -2.3 -5.7z"/>
  <path d="M404 454.6 c0 -3.3 0.2 -3.6 3.1 -3.6 l3 0 -2.1 3 c-3.1 4.4 -4 4.5 -4 0.6z"/>
  <path d="M710 456 c0 -2.2 2 -2.6 5.1 -1 3 1.6 2.3 3 -1.6 3 -2.8 0 -3.5 -0.4 -3.5 -2z"/>
  <path d="M502 452.8 c0 -3.4 0.3 -3.8 2.5 -3.8 3.1 0 3.2 1.1 0 4.7 l-2.4 2.8 -0.1 -3.7z"/>
  <path d="M190 453.2 c0 -1.6 0.9 -2.1 4.5 -2.6 2.5 -0.4 4.5 -1.1 4.5 -1.7 0 -0.5 1.6 -0.9 3.6 -0.9 3.2 0 3.5 0.2 2.3 1.6 -1.9 2.3 -5.8 4.1 -10.6 4.9 -3.9 0.6 -4.3 0.5 -4.3 -1.3z"/>
  <path d="M554 449.5 c0 -2.8 0.4 -3.5 2 -3.5 2.1 0 2.4 1 1.4 4.8 -1 3.6 -3.4 2.7 -3.4 -1.3z"/>
  <path d="M371 450.1 c0 -0.6 -1.5 -1.1 -3.2 -1.3 -3 -0.3 -3.3 -0.6 -3.6 -4 -0.4 -4.6 0.2 -4.7 3.3 -0.9 1.7 1.9 3.8 3.1 6.5 3.5 5.2 0.8 5.6 3.6 0.5 3.6 -1.9 0 -3.5 -0.4 -3.5 -0.9z"/>
  <path d="M448 450.5 c0 -1.5 4.2 -8.5 5 -8.5 1.1 0 1.3 4.9 0.4 7.4 -0.6 1.4 -5.4 2.4 -5.4 1.1z"/>
  <path d="M466 448.6 c0 -2.3 0.2 -2.4 3.5 -1.3 1.9 0.6 3.5 1.6 3.5 2.4 0 0.8 -1.3 1.3 -3.5 1.3 -3 0 -3.5 -0.3 -3.5 -2.4z"/>
  <path d="M846.7 450.3 c-0.4 -0.3 -0.7 -1.7 -0.7 -3.1 0 -2.2 -0.3 -2.4 -2.9 -1.9 -2.7 0.6 -3.2 0.2 -5.5 -4 -1.4 -2.5 -1.9 -4 -1.2 -3.3 1.2 0.9 2.1 0.4 4.6 -3.2 1.7 -2.4 4.9 -7.7 7.1 -11.8 2.2 -4.1 5.7 -10 7.9 -13 l4 -5.5 0 4.3 c0 2.3 -0.9 5.9 -2 8 l-2 3.7 2 0.3 c3.3 0.6 2.2 3.1 -1.8 4.2 -6 1.6 -7.6 4 -8 12.2 -0.4 6.8 -0.3 7.1 2.9 10.4 l3.3 3.4 -3.5 0 c-2 0 -3.9 -0.3 -4.2 -0.7z"/>
  <path d="M206.6 431.4 c-0.7 -9.2 -0.3 -11 1.9 -8.1 2.9 4 3 16.7 0.1 16.7 -0.9 0 -1.5 -2.7 -2 -8.6z"/>
  <path d="M605.3 428.5 c3.6 -3.2 4.7 -3.1 4.7 0 0 2.2 -0.4 2.5 -3.7 2.5 l-3.8 -0.1 2.8 -2.4z"/>
  <path d="M650 426.5 c0 -0.3 1.4 -1.8 3 -3.2 1.9 -1.6 3.4 -4.1 4.1 -6.9 1.4 -5.4 3.9 -6 3.9 -0.9 0 2.4 -0.5 3.5 -1.4 3.5 -1 0 -1.6 1.3 -1.8 3.8 -0.3 3.5 -0.5 3.7 -4 4 -2.1 0.2 -3.8 0 -3.8 -0.3z"/>
  <path d="M630 424 c0 -2.1 1 -2.4 4.8 -1.4 3.6 1 2.7 3.4 -1.3 3.4 -2.8 0 -3.5 -0.4 -3.5 -2z"/>
  <path d="M195 418 c0 -2.1 1 -2.4 4.8 -1.4 3.6 1 2.7 3.4 -1.3 3.4 -2.8 0 -3.5 -0.4 -3.5 -2z"/>
  <path d="M655.5 399.4 c-0.9 -1.5 -1.3 -2.4 -0.7 -2 0.6 0.3 3.1 -1.8 5.6 -4.6 l4.6 -5.3 0 4.3 c0 4.8 -3.2 10.2 -6.1 10.2 -0.9 0 -2.4 -1.2 -3.4 -2.6z"/>
  <path d="M542 367.2 c0 -4 0.9 -6.2 2.6 -6.2 0.9 0 1.4 -1.2 1.4 -3.5 0 -1.9 0.5 -3.5 1 -3.5 0.6 0 1 -1.1 1 -2.5 0 -1.4 0.5 -2.5 1 -2.5 0.6 0 1 -1.1 1 -2.5 0 -1.6 0.6 -2.5 1.5 -2.5 1 0 1.5 -1.1 1.5 -3.5 0 -3 0.3 -3.5 2.4 -3.5 2.9 0 3.3 -1.1 -5.2 18.9 -5.8 13.6 -8.2 16.9 -8.2 11.3z"/>
  <path d="M601 360 c0 -2.1 1.6 -2.5 5.8 -1.4 3.9 1.1 2.7 3.4 -1.8 3.4 -3.3 0 -4 -0.3 -4 -2z"/>
  <path d="M593 359 c0 -2.1 1 -2.4 4.8 -1.4 3.6 1 2.7 3.4 -1.3 3.4 -2.8 0 -3.5 -0.4 -3.5 -2z"/>
  <path d="M584 357.6 c0 -1.6 2.5 -2.4 5.3 -1.8 3.2 0.8 1.9 3.2 -1.8 3.2 -2.4 0 -3.5 -0.5 -3.5 -1.4z"/>
  <path d="M549.6 331.4 c-0.9 -2.5 -0.7 -7.4 0.4 -7.4 0.8 0 5 7 5 8.5 0 1.3 -4.8 0.3 -5.4 -1.1z"/>
  <path d="M545 318.3 c0 -1 -0.3 -4.2 -0.6 -7 -0.6 -4.4 -0.4 -5.3 0.9 -5.3 1.5 0 2 1.2 3.2 9.8 0.6 3.8 0.5 4.2 -1.4 4.2 -1.3 0 -2.1 -0.6 -2.1 -1.7z"/>
 </g>
 <g fill="#290b57">
  <path d="M699.5 770.4 c-1.6 -0.3 -3.4 -1.1 -4 -1.8 -0.5 -0.7 -5.5 -3.4 -11 -6 -11.7 -5.7 -20.4 -11.6 -29.5 -20 -13.8 -12.8 -20.8 -18.4 -26 -21.1 -11.3 -5.7 -24.1 -8.6 -39 -8.9 -6.5 -0.1 -8.9 0.4 -17 3.6 -5.2 2 -13.2 5.1 -17.8 6.9 -9.8 3.7 -19.1 9.8 -23.3 15 -5.6 7.1 -24.4 21.1 -33.4 24.9 -8.4 3.5 -24.5 6.9 -24.5 5.1 0 -0.4 -3.6 -1.2 -8 -1.8 -13.5 -1.8 -30.3 -10.8 -38.8 -20.8 -2.8 -3.3 -7.5 -8.7 -10.6 -12 -3.1 -3.3 -6.3 -7.4 -7.1 -9.2 -0.8 -1.7 -2.9 -4.3 -4.5 -5.7 -1.7 -1.3 -3 -3.1 -3 -3.8 -0.1 -0.7 -0.9 -3.8 -2 -6.8 -1.3 -3.7 -1.9 -8.2 -2 -13.7 0 -9.9 3.2 -19.8 12 -37.3 3.2 -6.3 7 -14.2 8.6 -17.5 6.1 -13.4 19.8 -29.9 30 -36.1 12.6 -7.6 20.5 -10.1 34.5 -10.9 10 -0.6 12.6 -0.4 19.2 1.4 4.3 1.2 8.9 2.1 10.4 2.1 1.4 0 3.2 0.8 3.9 1.8 1 1.3 1.5 1.4 2.5 0.5 0.9 -0.9 0.6 -1.5 -1.7 -2.5 -1.6 -0.7 -3.5 -1.8 -4.2 -2.5 -1.6 -1.5 -27.5 -14.3 -29 -14.3 -0.6 0 -1.6 0.9 -2.2 2 -1.2 2.2 -10.6 8 -13.1 8 -0.9 0 -2.7 -0.9 -4 -1.9 -2.3 -1.8 -2.3 -2 -1 -7.7 0.7 -3.3 1.6 -7.8 2 -10.1 0.9 -4.7 1 -4.6 -6 -4.3 -5.2 0.2 -10.5 -2.3 -16.5 -8 -3.9 -3.7 -6.1 -5 -8.3 -5 -1.6 0 -3.3 0.4 -3.6 1 -1.2 2 -9.8 6.3 -18.3 9.3 -8.6 2.9 -9.1 3 -33.6 3.4 -22.5 0.5 -25.3 0.4 -28.2 -1.2 -4.9 -2.6 -6.9 -7.5 -6.9 -17 0.1 -6.8 0.5 -9.2 3.3 -15.6 1.8 -4.2 4.7 -9.4 6.5 -11.5 4 -4.7 13.7 -19 13.7 -20.1 0 -0.4 1.4 -2.4 3 -4.3 4.9 -5.7 7.9 -14 5.1 -14 -0.5 0 -2.3 -1.2 -4 -2.6 -1.7 -1.4 -4.7 -2.8 -6.8 -3.1 -2.1 -0.3 -4.8 -1.3 -6.1 -2.1 -1.2 -0.8 -2.6 -1.2 -2.9 -0.8 -0.4 0.4 -1 4.1 -1.4 8.4 -0.3 4.6 -0.6 -3.1 -0.6 -18.8 -0.1 -14.6 0.2 -25.4 0.6 -24 l0.7 2.5 1.7 -3 c0.9 -1.6 2.8 -4.1 4.2 -5.4 l2.5 -2.3 0 3.1 c0 4.3 2.9 10.9 5.4 12.4 1.4 0.8 9.1 1.4 22.4 1.7 l20.3 0.5 -5.8 7.5 c-3.2 4.2 -10.3 13.2 -15.9 20 -13.7 17 -24.7 31.8 -26.9 35.9 -2.4 4.7 -1.8 15.9 1.1 19.8 4 5.3 4.1 5.3 42.9 5.1 32.7 -0.3 36.2 -0.5 38.6 -2.1 3.6 -2.4 5.4 -7.1 5.3 -13.6 0 -3 0.2 -4.9 0.4 -4.3 0.9 2.8 4 1.1 5.7 -3 0.9 -2.4 3.5 -6.7 5.7 -9.6 6.9 -8.9 11.1 -17.1 10.6 -20.6 -0.2 -1.4 -1.5 -2.5 -4.2 -3.4 -6.6 -2.1 -17 -7.2 -20.6 -10.1 -6.4 -5 -7.5 -5.3 -10.1 -2.7 -3.3 3.2 -10.1 11.8 -20.9 26.2 -6.1 8.2 -8.8 12.7 -8.4 13.8 0.5 1.2 0 1.6 -2 1.6 -2.5 0 -2.3 -0.3 3.9 -8.7 32.5 -43.6 39 -53.2 40.8 -60.1 0.7 -2.9 1.6 -5 1.9 -4.7 0.3 0.3 1.7 -0.8 3 -2.4 l2.5 -3 0.7 4.5 c0.7 5.6 3 10 5.9 11.6 1.5 0.9 8.6 1.5 22.1 1.8 l20 0.5 -10.8 14 c-28.1 36.7 -37.6 49.7 -38.2 52 -1.2 4.9 0.1 15.2 2.1 17.6 4.2 4.7 6.3 4.9 41.2 4.8 35.9 -0.1 40.3 -0.6 43.7 -5.2 4 -5.4 1.9 -17.8 -3.7 -20.9 -1.2 -0.7 -4.4 -1.5 -7.2 -1.9 -4.8 -0.7 -4.8 -0.7 1.4 -0.5 6.9 0.3 8.3 -0.8 6.2 -4.7 -1.1 -2.1 -0.9 -7.4 1.5 -36.6 0.8 -9.6 0.3 -11.8 -2.5 -9.9 -2.1 1.5 -6.5 7.2 -13.5 17.5 -2.7 4 -7.8 10.8 -11.4 15 -8.2 9.9 -12.3 15.9 -12 17.4 0.2 0.7 -0.6 1.5 -1.6 1.7 -1.8 0.4 -1.8 0.3 0.2 -2.9 1.2 -1.9 10.5 -14.8 20.8 -28.8 10.3 -14 20.2 -28.3 22.1 -31.9 1.8 -3.5 3.3 -5.5 3.3 -4.5 0.1 2.1 4.2 -2.2 10.3 -10.7 4.2 -6 4.4 -5.9 1.8 0.8 -3.2 8.2 -5.1 19.5 -5.1 30.9 0 12.2 1.6 21 5.6 30.9 7.6 19.2 23.6 34.4 42.9 40.9 12.6 4.2 35.8 3.9 45.1 -0.5 12.3 -6 11 -27 -1.8 -30 -3.2 -0.8 -3.2 -0.8 -0.5 -0.9 l2.7 -0.1 -0.2 -32.8 c-0.4 -39.2 -0.3 -39.1 -8.2 -31.3 -2.8 2.7 -6.4 5.5 -7.9 6 -1.6 0.6 -8.8 1.1 -16 1.1 -13.8 0.1 -21.1 1 -23 2.9 -0.6 0.6 -1.7 4.6 -2.4 8.9 l-1.2 7.7 0.5 -7.3 c1.3 -18 9.2 -29.7 22.7 -33.7 6.5 -1.9 12.9 -1.9 24.3 0.1 11.6 2.1 14 1.6 16.4 -3.9 2.1 -4.6 2.6 -13 1 -17.3 -0.8 -2 -0.7 -2.9 0.4 -3.8 0.7 -0.6 2.7 -3 4.3 -5.3 l3 -4.2 0.6 68.5 c0.7 73.6 0.5 71.7 6 75.8 2.2 1.7 4.2 2 10.1 1.9 4 0 8.3 -0.6 9.4 -1.2 3.4 -1.8 1.8 0.9 -2.3 3.9 -1.8 1.4 -5 5 -7 7.9 l-3.6 5.5 2.3 1.3 c1.9 1 -10.2 1.2 -65.7 1.2 -38.8 0 -67.1 -0.4 -66 -0.9 1.1 -0.5 4.2 -0.9 6.8 -0.9 2.7 -0.1 6.8 -0.6 9.3 -1.2 4.3 -1.1 4.4 -1.2 2.6 -2.9 -1 -1 -2.8 -2.1 -4 -2.4 -1.2 -0.4 -2.7 -1.6 -3.2 -2.7 -0.6 -1 -2 -1.9 -3.1 -1.9 -1.1 0 -2.3 -0.8 -2.6 -1.7 -0.6 -1.6 -4.1 -5.3 -4.9 -5.3 -1.2 0 -8.5 4.7 -11 7.2 -4.2 3.9 -7.4 9.9 -5.6 10.5 0.6 0.3 1.2 0.9 1.2 1.5 0 0.7 -7.9 0.9 -24.7 0.6 -24.7 -0.5 -24.7 -0.4 -27 1.8 -3.5 3.5 -3.1 8.5 0.8 11.8 3.5 3 7.2 3.3 12.9 1 3.5 -1.4 5 -1.5 10.1 -0.5 12.5 2.5 19.1 6.6 41.9 26.1 22.8 19.4 31.1 23.7 44.4 22.7 14.5 -1 23.4 -6.2 41.2 -24.1 21.5 -21.7 28.5 -24.5 64 -26.3 12.4 -0.6 13.3 -0.5 16.2 1.6 6.6 4.6 15.2 1.2 15.2 -6.2 0 -6.9 -6 -10.7 -13 -8.3 -2.3 0.8 -7 1 -13.5 0.7 -9.6 -0.5 -9.8 -0.5 -4.2 -1.2 3.2 -0.3 6 -0.9 6.4 -1.2 0.3 -0.4 0.7 -8.6 0.9 -18.4 0.4 -23.6 -1.6 -40.5 -5.9 -50.3 -1.5 -3.3 -1.6 -2.2 -1.9 20 -0.3 21.4 -0.4 20.5 -0.6 -9.6 l-0.2 -33.1 2.4 -2.6 c4.6 -5 15.1 -4.7 19 0.6 2 2.7 2.1 4.3 2.6 36.8 l0.5 33.9 3.1 3.1 c2.8 2.8 4 3.2 10 3.6 8.4 0.5 13 -1.5 15.6 -6.7 1.6 -3.1 1.8 -7.3 1.9 -39 0 -19.5 0.4 -34.7 0.7 -33.7 1.2 3 5 -0.6 6.7 -6.6 2.2 -7.4 3.1 -8.5 3.9 -4.7 0.8 4.2 7.5 11 10.8 11 1.4 0 5.1 -0.9 8.4 -2.1 9.1 -3.2 19 -3.6 24.6 -1.1 3.9 1.7 4.8 2.6 5.7 5.9 2.1 7.4 2.9 7 -14.6 7.5 -14.8 0.3 -16.2 0.5 -22 3.2 -3.9 1.8 -8 4.7 -10.8 7.7 -2.5 2.6 -4.5 4.6 -4.5 4.3 0 -0.3 0.9 -2.2 2 -4.4 1.1 -2.2 2 -4.6 2 -5.4 0 -3.1 -7.7 -4.9 -9.8 -2.3 -1.2 1.4 -2.3 13.5 -1.5 16.6 0.7 2.6 3.8 2.8 5.3 0.4 0.8 -1.4 0.9 -1.1 0.3 1.2 -0.5 1.7 -0.8 8 -0.8 14 0 10.5 0.2 11.4 3.3 17.7 5.7 11.7 14.1 16.8 27.7 16.8 9 0 15.7 -2 22 -6.4 l4.9 -3.5 1.7 2.9 c2.2 3.5 4.1 4.6 9.9 5.4 5.8 0.7 12 -0.7 14.2 -3.4 2.6 -3.2 2.9 -10.2 2 -44.5 -0.9 -29.4 -1.1 -32.5 -3.2 -37.8 -1.9 -5.1 -2 -6 -0.7 -7 2.4 -2 10.2 -15.9 12 -21.4 1 -2.9 3.1 -7.4 4.7 -10 l3 -4.7 0 9.2 0 9.1 -3.2 0.6 c-5.9 1.1 -8.1 3.9 -9.3 11.6 -1.2 8.3 3.9 14.9 11.7 14.9 l2.3 0 0.3 25.8 c0.2 14.1 0.7 28.6 1.2 32.3 1.7 12 5.8 18.8 14.2 23.5 5.1 2.8 5.8 2.9 18.6 2.9 l13.3 0 -3.3 2.7 c-1.8 1.6 -5.5 4.2 -8.3 5.9 -2.7 1.8 -7.5 4.8 -10.5 6.7 -7.9 5.1 -22 12.2 -24.3 12.2 -3.6 0 -8.5 -3.1 -10 -6.3 -3.4 -7.2 -4.6 -30.9 -2.1 -42.6 0.4 -1.9 0.1 -8.6 -0.6 -14.9 -1.2 -10.4 -1.4 -11.3 -2.6 -9.1 -1 1.7 -1.3 7.3 -1.4 20.2 l0 17.7 -3.8 3.8 c-5 5 -29.8 25.5 -32.3 26.6 -2.3 1.1 -4.4 -0.5 -6.6 -5.1 -1.7 -3.7 -5.4 -5.7 -8.4 -4.8 -1 0.4 -4.2 2.4 -7.1 4.5 -5.9 4.5 -12.5 6.3 -23.3 6.3 -7.5 0.1 -12.5 -2 -15.5 -6.4 -3.1 -4.5 -6.2 -7.9 -7.3 -7.9 -0.6 0 -3.9 1.7 -7.4 3.8 -5.7 3.3 -6.3 4 -5.8 6.2 2.1 8.4 1.9 9.8 -2.2 13.8 -12.3 11.7 -13 12.2 -18.2 12.2 -9.3 0 -10.4 -2.2 -4.3 -8.4 l3.7 -3.9 -6.9 0.7 c-3.8 0.4 -8.5 1.4 -10.5 2.2 -7.1 3.1 -17.9 5.7 -28.1 6.8 -6.6 0.8 -11.7 2.2 -14.8 4.2 -1.5 0.9 -10.3 9.3 -19.7 18.6 -26.1 25.7 -42 36.2 -57.2 37.5 -7.3 0.7 -7.9 1.8 -3.1 5.8 3.4 2.9 5.8 4 12.8 6 2.5 0.7 3.6 1.4 2.4 1.4 -2.7 0.1 -12.4 -3.2 -16.1 -5.5 -7.6 -4.8 -16.7 -13.2 -23.5 -21.6 -4.2 -5.2 -10.3 -11.9 -13.5 -14.9 -18.5 -17 -47.2 -21 -71.2 -9.9 -35.2 16.5 -52.4 57 -40.2 95 10.7 33.3 45.5 56.4 78.3 52 16.9 -2.3 28.8 -9.4 49.2 -29.5 8.7 -8.5 16.4 -15.1 20.5 -17.5 19.8 -11.7 43.6 -13.1 65.7 -3.9 9.3 3.9 17 9.4 30.3 22.1 19.8 18.7 28.9 24.5 59.9 38.5 17.1 7.7 19.1 8.9 16.6 9.5 -1.6 0.3 -5.4 1.4 -8.4 2.3 -5.5 1.6 -24.6 2.8 -30.5 1.9z m-50.4 -219.2 c1.1 -1.3 -0.3 -9.2 -1.6 -9.2 -1.4 0 -8.5 7.5 -8.5 8.9 0 0.5 0.6 1.1 1.3 1.4 1.6 0.6 8 -0.2 8.8 -1.1z"/>
  <path d="M589.3 652.3 c2.6 -0.2 6.7 -0.2 9 0 2.3 0.2 0.2 0.3 -4.8 0.3 -4.9 0 -6.8 -0.1 -4.2 -0.3z"/>
  <path d="M623 645.7 c0 -0.3 1.7 -1.6 3.7 -2.8 2 -1.3 8 -5.6 13.2 -9.7 5.3 -4.1 8.5 -6.2 7.1 -4.7 -4.2 4.5 -24 18.7 -24 17.2z"/>
  <path d="M650 625.6 c0 -1 2.7 -3.6 13.5 -13.1 15.5 -13.5 35 -21.8 47.5 -20.3 3.3 0.5 3.3 0.5 -0.8 0.6 -6.7 0.3 -18 3.1 -25.1 6.3 -7.7 3.5 -14.5 8.5 -26.3 19.2 -4.9 4.3 -8.8 7.6 -8.8 7.3z"/>
  <path d="M121.5 590.8 c-5.3 -4.2 -6.8 -6.7 -3.8 -6.4 1.5 0.1 1.8 -0.6 1.7 -3.7 -0.1 -2 -0.9 -4.6 -1.9 -5.7 -1.5 -1.7 -1.8 -3.9 -1.9 -14.2 -0.1 -29.2 1.4 -75.8 2.8 -83.4 0.8 -4.3 1.7 -12.9 2 -19 1.2 -21.8 3.4 -28.2 17 -48.6 l7.1 -10.7 0.5 74.5 0.5 74.6 2.7 2.3 c3.8 3.3 10.6 3.9 34.5 3.2 27.9 -0.9 38.5 -3.3 49.3 -11.2 15.7 -11.5 21.4 -37.7 12.5 -57.3 -2.8 -6 -9.2 -13.4 -13.8 -15.8 l-2.8 -1.5 4.2 -4.7 c2.2 -2.6 5.4 -7.2 6.9 -10.2 3 -5.8 5.4 -9 13.2 -17.4 l4.8 -5.1 0 33.8 c0 43.5 1.2 51.1 9.1 60.1 7.2 8.3 15.6 12.1 30.1 13.6 22.1 2.3 42.2 -4.4 50.5 -16.7 4.5 -6.8 6.3 -12.4 7.2 -22.8 0.7 -8.2 0.8 -8.5 1 -2.9 0.1 8.2 -1.4 15.6 -4.6 22.3 -3.6 7.5 -27.4 31.3 -39.3 39.4 -12.8 8.6 -17.6 10 -35.2 10.5 l-14.7 0.4 -6.8 -3.6 c-9.9 -5.2 -14.3 -9.1 -14.3 -12.6 0 -4.1 -1 -6 -3 -6 -2.3 0 -8.8 4.3 -12.5 8.4 -8.6 9.3 -24.3 21.2 -35 26.5 -14.1 6.9 -20.8 8.8 -32.5 9.4 -6.3 0.4 -14.2 0.3 -17.5 -0.1 -7.4 -0.9 -10.7 -0.3 -12 2.5 -1 2 -1.2 1.9 -6 -1.9z m119.1 -119.4 c0.7 -2.7 -0.1 -12.3 -1.1 -13.3 -0.3 -0.3 -2.6 1.6 -5.1 4.3 -2.5 2.6 -4.4 5 -4.1 5.2 1.4 1.4 8.3 6.3 8.9 6.4 0.4 0 1.1 -1.2 1.4 -2.6z"/>
  <path d="M180 503.6 l0 -21.6 8.8 0 c10.4 0 15 1.2 19.3 4.7 4.1 3.5 5.9 7.9 5.9 14.5 0 7.4 -1.6 12.2 -5.3 16.5 -4.3 4.9 -7.8 6.1 -19.1 6.9 l-9.6 0.7 0 -21.7z"/>
  <path d="M296.3 509.5 c-4.3 -1.9 -6.3 -6.1 -6.2 -13.2 l0.2 -5.8 0.8 7 c0.6 5.7 1.3 7.4 3.4 9.3 6.8 5.8 8.7 0.5 7.1 -20.3 -1.4 -18.2 3.2 -34 14.3 -48.8 2.7 -3.5 5.1 -7.1 5.4 -7.8 0.3 -0.8 0.5 15 0.4 35.1 -0.2 34.3 -0.3 36.7 -2.2 39.7 -1 1.8 -3.3 3.9 -5.1 4.8 -4 1.9 -13.8 1.9 -18.1 0z"/>
  <path d="M793 508.3 c-2.8 -1 -4 -3.7 -4 -9 0 -7.5 3.2 -11 11.8 -12.4 3.4 -0.6 7.8 -0.8 9.7 -0.5 l3.5 0.7 0 6 c0 8.4 -1.8 12.2 -6.9 14.2 -4 1.6 -11 2.1 -14.1 1z"/>
  <path d="M893.1 461.8 l-0.1 -9.8 4.8 0 c2.6 0 6.5 -0.3 8.7 -0.7 l4 -0.6 -8.2 7.7 c-5.4 5.1 -8.3 8.6 -8.6 10.4 -0.2 1.5 -0.5 -1.7 -0.6 -7z"/>
  <path d="M180 435.5 l0 -19.5 8.3 0 c10.1 0 14.5 1.2 18 4.8 4.8 5 5.6 16.4 1.6 24.4 -3.4 6.6 -10.3 9.7 -22.1 9.8 l-5.8 0 0 -19.5z"/>
  <path d="M529 389.5 c0 -0.8 1.6 -6.1 3.5 -11.7 4.5 -12.9 5.1 -20.4 3.1 -33.9 -0.9 -5.9 -1.6 -12.9 -1.6 -15.7 0 -8.3 4.6 -23.7 10.2 -34 5.1 -9.5 7.1 -11.4 4.7 -4.5 -0.9 2.4 -1.4 7.9 -1.3 14.8 0.1 9.4 0.5 12 2.8 17.9 1.4 3.9 3.8 8.5 5.2 10.3 l2.6 3.4 -5.7 13.7 c-7.9 18.7 -9.9 24.1 -9.3 24.8 0.6 0.6 14.1 -5.3 29.8 -13.1 12.6 -6.2 11.6 -6.1 27.5 -3.5 12.8 2.1 25.7 -0.1 38.8 -6.6 3.7 -1.8 6.7 -3.1 6.7 -3 0 1.1 -33.7 21.4 -44 26.6 -5.8 2.9 -7 3.2 -12.5 2.7 -3.3 -0.3 -8 -1.3 -10.4 -2.1 -8.9 -3.2 -17.2 -1.7 -27.8 5.1 -7.1 4.4 -18.9 10.3 -20.8 10.3 -0.8 0 -1.5 -0.7 -1.5 -1.5z"/>
 </g>
</svg>